{
.appVersion = "3308";
.formatVersion = 3;
customParameters = (
{
name = fsType;
value = (
);
},
{
name = "Use Typo Metrics";
value = 1;
}
);
date = "2024-06-12 12:52:42 +0000";
familyName = Rammetto;
featurePrefixes = (
{
code = "#> languagesystem\\012languagesystem DFLT dflt;\\012languagesystem latn dflt;\\012#< languagesystem\\012";
name = Languagesystems;
}
);
features = (
{
code = "  sub f i by fi;\\015\\012\\015\\012\\015\\012\\015\\012\\015\\012\\015\\012\\015\\012\\015\\012  sub f l by fl;\\015\\012\\015\\012\\015\\012\\015\\012\\015\\012\\015\\012\\015\\012\\015\\012  sub f f by ff;\\015\\012\\015\\012\\015\\012\\015\\012\\015\\012\\015\\012\\015\\012\\015\\012  sub f f i by ffi;\\015\\012\\015\\012\\015\\012\\015\\012\\015\\012\\015\\012\\015\\012\\015\\012  sub f f l by ffl;";
tag = liga;
},
{

glyphs = (
{
glyphname = A;
kernLeft = _A;
kernRight = _A;
layers = (
{
anchors = (
{
name = top;
pos = (1045,1554);
}
);
layerId = "22B129CF-CF15-475D-9616-E64336B05864";
shapes = (
{
closed = 1;
nodes = (
(739,0,l),
(793,158,l),
(1225,158,l),
(1288,0,l),
(2099,0,l),
(1247,1522,ls),
(1205,1597,o),
(1123,1632,o),
(1044,1632,cs),
(956,1632,o),
(865,1589,o),
(827,1516,cs),
(33,0,l)
);
},
{
closed = 1;
nodes = (
(1012,907,l),
(1165,475,l),
(842,475,l)
);
}
);
width = 2128;
}
);
unicode = 65;
},
{
glyphname = AE;
layers = (
{
layerId = "22B129CF-CF15-475D-9616-E64336B05864";
shapes = (
{
closed = 1;
nodes = (
(23,0,l),
(674,0,l),
(745,123,l),
(1153,123,l),
(1153,0,l),
(2380,0,l),
(2380,444,l),
(1825,444,l),
(1825,618,l),
(2349,618,l),
(2349,1001,l),
(1825,1001,l),
(1825,1155,l),
(2349,1155,l),
(2349,1597,l),
(1114,1597,l)
);
},
{
closed = 1;
nodes = (
(1153,494,l),
(930,494,l),
(1153,920,l)
);
}
);
width = 2439;
}
);
unicode = 198;
},
{
glyphname = B;
layers = (
{
background = {
shapes = (
{
closed = 1;
nodes = (
(694,1642,o),
(434,1624,o),
(123,1593,c),
(123,0,l),
(776,0,l),
(776,289,l),
(846,289,o),
(901,285,o),
(954,285,cs),
(1370,285,o),
(1706,575,o),
(1706,991,cs),
(1706,1456,o),
(1475,1642,o),
(918,1642,cs)
);
},
{
closed = 1;
nodes = (
(1096,1227,o),
(1137,1169,o),
(1137,1102,cs),
(1137,946,o),
(1024,854,o),
(889,788,cs),
(772,731,l),
(772,1108,l),
(772,1108,o),
(930,1227,o),
(1024,1227,cs)
);
}
);
};
guides = (
{
angle = 90;
pos = (748,0);
}
);
layerId = "22B129CF-CF15-475D-9616-E64336B05864";
shapes = (
{
closed = 1;
nodes = (
(123,4,l),
(242,-4,o),
(795,-23,o),
(913,-23,cs),
(1272,-23,o),
(1808,0,o),
(1808,467,cs),
(1808,770,o),
(1640,879,o),
(1475,936,c),
(1632,1008,o),
(1708,1102,o),
(1708,1249,cs),
(1708,1479,o),
(1511,1622,o),
(918,1622,cs),
(653,1622,o),
(123,1597,o),
(123,1597,c)
);
},
{
closed = 1;
nodes = (
(1143,480,o),
(1008,430,o),
(800,352,cs),
(783,346,o),
(766,339,o),
(748,332,c),
(748,584,l),
(817,618,o),
(954,705,o),
(1044,705,cs),
(1100,705,o),
(1143,682,o),
(1143,621,cs)
);
},
{
closed = 1;
nodes = (
(748,1126,l),
(754,1130,o),
(897,1225,o),
(989,1225,cs),
(1034,1225,o),
(1090,1198,o),
(1090,1139,cs),
(1090,1004,o),
(918,932,o),
(748,866,c)
);
}
);
width = 1892;
}
);
unicode = 66;
},
{
glyphname = C;
kernLeft = _O_left;
layers = (
{
anchors = (
{
name = bot;
pos = (926,0);
},
{
name = top;
pos = (895,1554);
}
);
layerId = "22B129CF-CF15-475D-9616-E64336B05864";
shapes = (
{
closed = 1;
nodes = (
(1413,698,l),
(1167,518,o),
(1085,508,o),
(1024,508,cs),
(920,508,o),
(866,590,o),
(866,727,cs),
(866,934,o),
(1040,1102,o),
(1247,1102,cs),
(1290,1102,o),
(1337,1094,o),
(1382,1077,c),
(1382,1593,l),
(1276,1632,o),
(1114,1642,o),
(1034,1642,cs),
(459,1642,o),
(61,1276,o),
(61,745,cs),
(61,244,o),
(498,-39,o),
(952,-39,cs),
(1116,-39,o),
(1272,-10,o),
(1413,47,c)
);
}
);
width = 1526;
}
);
unicode = 67;
},
{
glyphname = D;
kernRight = _O_right;
layers = (
{
anchors = (
{
name = top;
pos = (836,1555);
}
);
background = {
shapes = (
{
closed = 1;
nodes = (
(123,-33,l),
(242,-41,o),
(795,-59,o),
(913,-59,cs),
(1272,-59,o),
(1808,-18,o),
(1808,467,cs),
(1808,770,o),
(1640,879,o),
(1475,936,c),
(1632,1008,o),
(1708,1102,o),
(1708,1249,cs),
(1708,1491,o),
(1511,1642,o),
(918,1642,cs),
(653,1642,o),
(123,1597,o),
(123,1597,c)
);
},
{
closed = 1;
nodes = (
(1174,625,ls),
(1174,428,o),
(940,373,o),
(748,291,c),
(748,627,l),
(821,664,o),
(971,758,o),
(1069,758,cs),
(1128,758,o),
(1167,729,o),
(1174,645,c)
);
},
{
closed = 1;
nodes = (
(748,1147,l),
(754,1153,o),
(883,1253,o),
(967,1253,cs),
(1010,1253,o),
(1059,1225,o),
(1059,1161,cs),
(1059,993,o),
(840,920,o),
(748,870,c)
);
}
);
};
guides = (
{
angle = 90;
pos = (745,0);
}
);
layerId = "22B129CF-CF15-475D-9616-E64336B05864";
shapes = (
{
closed = 1;
nodes = (
(123,0,l),
(889,0,ls),
(1370,0,o),
(1735,295,o),
(1735,797,cs),
(1735,1200,o),
(1493,1642,o),
(971,1642,cs),
(688,1642,o),
(123,1597,o),
(123,1597,c)
);
},
{
closed = 1;
nodes = (
(745,1090,l),
(784,1135,o),
(840,1174,o),
(901,1174,cs),
(1028,1174,o),
(1098,1038,o),
(1098,928,cs),
(1098,707,o),
(887,602,o),
(745,481,c)
);
}
);
width = 1810;
}
);
unicode = 68;
},
{
glyphname = Eth;
kernRight = _O_right;
layers = (
{
layerId = "22B129CF-CF15-475D-9616-E64336B05864";
shapes = (
{
closed = 1;
nodes = (
(123,0,l),
(889,0,ls),
(1370,0,o),
(1735,295,o),
(1735,797,cs),
(1735,1200,o),
(1493,1642,o),
(971,1642,cs),
(688,1642,o),
(123,1597,o),
(123,1597,c),
(123,983,l),
(49,983,l),
(49,748,l),
(123,748,l)
);
},
{
closed = 1;
nodes = (
(745,1090,l),
(784,1135,o),
(840,1174,o),
(901,1174,cs),
(1028,1174,o),
(1098,1038,o),
(1098,928,cs),
(1098,707,o),
(887,602,o),
(745,481,c),
(745,748,l),
(922,748,l),
(922,983,l),
(745,983,l)
);
}
);
width = 1812;
}
);
unicode = 208;
},
{
glyphname = E;
layers = (
{
anchors = (
{
name = top;
pos = (705,1554);
}
);
layerId = "22B129CF-CF15-475D-9616-E64336B05864";
shapes = (
{
closed = 1;
nodes = (
(123,0,l),
(1309,0,l),
(1309,463,l),
(745,463,l),
(745,614,l),
(1272,614,l),
(1272,1006,l),
(745,1006,l),
(745,1137,l),
(1274,1137,l),
(1274,1597,l),
(123,1597,l)
);
}
);
width = 1423;
}
);
unicode = 69;
},
{
glyphname = F;
layers = (
{
layerId = "22B129CF-CF15-475D-9616-E64336B05864";
shapes = (
{
closed = 1;
nodes = (
(123,0,l),
(745,0,l),
(745,561,l),
(1272,561,l),
(1272,997,l),
(745,997,l),
(745,1145,l),
(1272,1145,l),
(1272,1597,l),
(123,1597,l)
);
}
);
width = 1323;
}
);
unicode = 70;
},
{
glyphname = G;
kernLeft = _O_left;
layers = (
{
anchors = (
{
name = top;
pos = (958,1554);
}
);
layerId = "22B129CF-CF15-475D-9616-E64336B05864";
shapes = (
{
closed = 1;
nodes = (
(1618,762,l),
(1618,762,o),
(1616,760,o),
(1104,760,c),
(1104,645,o),
(1104,569,o),
(1102,520,c),
(1079,510,o),
(1047,506,o),
(1016,506,cs),
(877,506,o),
(793,608,o),
(793,752,cs),
(793,938,o),
(948,1145,o),
(1268,1145,cs),
(1352,1145,o),
(1442,1130,o),
(1540,1100,c),
(1540,1583,l),
(1536,1583,o),
(1409,1642,o),
(1145,1642,cs),
(524,1642,o),
(63,1325,o),
(63,807,cs),
(63,289,o),
(492,-39,o),
(1063,-39,cs),
(1270,-39,o),
(1618,20,o),
(1618,20,c)
);
}
);
width = 1724;
}
);
unicode = 71;
},
{
glyphname = H;
layers = (
{
guides = (
{
angle = 90;
pos = (745,0);
},
{
angle = 90;
pos = (1077,0);
}
);
layerId = "22B129CF-CF15-475D-9616-E64336B05864";
shapes = (
{
closed = 1;
nodes = (
(1077,1047,l),
(745,1020,l),
(745,1597,l),
(123,1597,l),
(123,0,l),
(745,0,l),
(745,561,l),
(1077,590,l),
(1077,0,l),
(1700,0,l),
(1700,1597,l),
(1077,1597,l)
);
}
);
width = 1823;
}
);
unicode = 72;
},
{
glyphname = Hbar;
layers = (
{
layerId = "22B129CF-CF15-475D-9616-E64336B05864";
shapes = (
{
closed = 1;
nodes = (
(745,1597,l),
(123,1597,l),
(123,0,l),
(745,0,l),
(745,561,l),
(1077,590,l),
(1077,0,l),
(1700,0,l),
(1700,1597,l),
(1077,1597,l),
(1077,1426,l),
(745,1426,l)
);
},
{
closed = 1;
nodes = (
(1077,1047,l),
(745,1020,l),
(745,1233,l),
(1077,1233,l)
);
}
);
width = 1823;
}
);
unicode = 294;
},
{
glyphname = I;
layers = (
{
anchors = (
{
name = bot;
pos = (442,0);
},
{
name = top;
pos = (442,1554);
}
);
layerId = "22B129CF-CF15-475D-9616-E64336B05864";
shapes = (
{
closed = 1;
nodes = (
(745,1597,l),
(123,1597,l),
(123,0,l),
(745,0,l)
);
}
);
width = 866;
}
);
unicode = 73;
},
{
glyphname = J;
layers = (
{
anchors = (
{
name = top;
pos = (1106,1554);
}
);
background = {
shapes = (
{
closed = 1;
nodes = (
(1468,1597,l),
(1468,1597,o),
(938,1642,o),
(674,1642,cs),
(80,1642,o),
(-117,1491,o),
(-117,1249,cs),
(-117,1102,o),
(-41,1008,o),
(117,936,c),
(-49,879,o),
(-217,770,o),
(-217,467,cs),
(-217,-18,o),
(319,-59,o),
(678,-59,cs),
(797,-59,o),
(1350,-41,o),
(1468,-33,c)
);
},
{
closed = 1;
nodes = (
(418,645,l),
(424,729,o),
(463,758,o),
(522,758,cs),
(621,758,o),
(770,664,o),
(844,627,c),
(844,291,l),
(651,373,o),
(418,428,o),
(418,625,cs)
);
},
{
closed = 1;
nodes = (
(844,870,l),
(752,920,o),
(532,993,o),
(532,1161,cs),
(532,1225,o),
(582,1253,o),
(625,1253,cs),
(709,1253,o),
(838,1153,o),
(844,1147,c)
);
}
);
};
layerId = "22B129CF-CF15-475D-9616-E64336B05864";
shapes = (
{
closed = 1;
nodes = (
(1151,-39,o),
(1481,170,o),
(1481,825,cs),
(1481,1597,l),
(844,1597,l),
(844,647,ls),
(844,526,o),
(774,451,o),
(702,451,cs),
(633,451,o),
(569,512,o),
(569,641,cs),
(569,795,l),
(14,719,l),
(14,567,ls),
(14,143,o),
(308,-39,o),
(727,-39,cs)
);
}
);
width = 1579;
}
);
unicode = 74;
},
{
glyphname = K;
layers = (
{
layerId = "22B129CF-CF15-475D-9616-E64336B05864";
shapes = (
{
closed = 1;
nodes = (
(123,1597,l),
(123,0,l),
(770,0,l),
(770,500,l),
(807,565,l),
(1141,0,l),
(1870,0,l),
(1274,924,l),
(1790,1597,l),
(1141,1597,l),
(756,1106,l),
(756,1597,l)
);
}
);
width = 1956;
}
);
unicode = 75;
},
{
glyphname = L;
layers = (
{
anchors = (
{
name = top;
pos = (445,1555);
}
);
layerId = "22B129CF-CF15-475D-9616-E64336B05864";
shapes = (
{
closed = 1;
nodes = (
(123,0,l),
(1282,0,l),
(1282,481,l),
(745,481,l),
(745,1597,l),
(123,1597,l)
);
}
);
width = 1313;
}
);
unicode = 76;
},
{
glyphname = LJ;
layers = (
{
layerId = "22B129CF-CF15-475D-9616-E64336B05864";
shapes = (
{
closed = 1;
nodes = (
(123,0,l),
(1282,0,l),
(1282,481,l),
(745,481,l),
(745,1597,l),
(123,1597,l)
);
},
{
closed = 1;
nodes = (
(2464,-39,o),
(2794,170,o),
(2794,825,cs),
(2794,1597,l),
(2157,1597,l),
(2157,647,ls),
(2157,526,o),
(2087,451,o),
(2015,451,cs),
(1946,451,o),
(1882,512,o),
(1882,641,cs),
(1882,795,l),
(1327,719,l),
(1327,567,ls),
(1327,143,o),
(1621,-39,o),
(2040,-39,cs)
);
}
);
width = 2892;
}
);
unicode = 455;
},
{
glyphname = Lj;
layers = (
{
layerId = "22B129CF-CF15-475D-9616-E64336B05864";
shapes = (
{
closed = 1;
nodes = (
(123,0,l),
(1282,0,l),
(1282,481,l),
(745,481,l),
(745,1597,l),
(123,1597,l)
);
},
{
closed = 1;
nodes = (
(1344,-188,l),
(1458,-279,o),
(1612,-332,o),
(1764,-332,cs),
(2015,-332,o),
(2224,-168,o),
(2224,111,cs),
(2224,1241,l),
(1626,1241,l),
(1626,317,ls),
(1626,201,o),
(1524,53,o),
(1450,53,cs),
(1407,53,o),
(1372,59,o),
(1346,70,c)
);
},
{
closed = 1;
nodes = (
(1729,1819,o),
(1618,1677,o),
(1618,1550,cs),
(1618,1444,o),
(1692,1346,o),
(1897,1346,cs),
(2110,1346,o),
(2228,1483,o),
(2228,1608,cs),
(2228,1718,o),
(2140,1819,o),
(1952,1819,cs)
);
}
);
width = 2329;
}
);
unicode = 456;
},
{
glyphname = Lslash;
layers = (
{
layerId = "22B129CF-CF15-475D-9616-E64336B05864";
shapes = (
{
closed = 1;
nodes = (
(0,541,l),
(123,584,l),
(123,0,l),
(1282,0,l),
(1282,481,l),
(745,481,l),
(745,805,l),
(928,870,l),
(928,1241,l),
(745,1176,l),
(745,1597,l),
(123,1597,l),
(123,954,l),
(0,911,l)
);
}
);
width = 1321;
}
);
unicode = 321;
},
{
glyphname = M;
layers = (
{
layerId = "22B129CF-CF15-475D-9616-E64336B05864";
shapes = (
{
closed = 1;
nodes = (
(123,0,l),
(676,0,l),
(676,506,l),
(1073,70,l),
(1481,518,l),
(1481,0,l),
(2138,0,l),
(2138,1597,l),
(1917,1597,l),
(1124,872,l),
(352,1597,l),
(123,1597,l)
);
}
);
width = 2261;
}
);
unicode = 77;
},
{
glyphname = N;
layers = (
{
anchors = (
{
name = top;
pos = (961,1554);
}
);
layerId = "22B129CF-CF15-475D-9616-E64336B05864";
shapes = (
{
closed = 1;
nodes = (
(123,0,l),
(684,0,l),
(684,549,l),
(1505,0,l),
(1720,0,l),
(1720,1597,l),
(1157,1597,l),
(1157,975,l),
(285,1597,l),
(123,1597,l)
);
}
);
width = 1843;
}
);
unicode = 78;
},
{
glyphname = O;
kernLeft = _O_left;
kernRight = _O_right;
layers = (
{
anchors = (
{
name = top;
pos = (961,1554);
}
);
guides = (
{
angle = 90;
pos = (946,0);
}
);
layerId = "22B129CF-CF15-475D-9616-E64336B05864";
shapes = (
{
closed = 1;
nodes = (
(1192,1159,o),
(1237,1090,o),
(1237,997,cs),
(1237,797,o),
(1032,481,o),
(891,481,cs),
(770,481,o),
(723,551,o),
(723,647,cs),
(723,848,o),
(930,1159,o),
(1075,1159,cs)
);
},
{
closed = 1;
nodes = (
(1440,-39,o),
(1866,285,o),
(1866,797,cs),
(1866,1325,o),
(1468,1642,o),
(961,1642,cs),
(477,1642,o),
(74,1307,o),
(74,805,cs),
(74,293,o),
(510,-39,o),
(961,-39,cs)
);
}
);
width = 1942;
}
);
unicode = 79;
},
{
glyphname = Oslash;
kernLeft = _O_left;
kernRight = _O_right;
layers = (
{
layerId = "22B129CF-CF15-475D-9616-E64336B05864";
shapes = (
{
closed = 1;
nodes = (
(1430,-39,o),
(1855,285,o),
(1855,797,cs),
(1855,1178,o),
(1649,1448,o),
(1343,1571,c),
(1405,1763,l),
(1262,1804,l),
(1200,1614,l),
(1120,1632,o),
(1036,1642,o),
(950,1642,cs),
(467,1642,o),
(63,1307,o),
(63,805,cs),
(63,422,o),
(305,139,o),
(616,20,c),
(551,-184,l),
(694,-225,l),
(762,-18,l),
(823,-31,o),
(887,-39,o),
(950,-39,cs)
);
},
{
closed = 1;
nodes = (
(1182,1159,o),
(1227,1090,o),
(1227,997,cs),
(1227,797,o),
(1022,481,o),
(881,481,cs),
(760,481,o),
(713,551,o),
(713,647,cs),
(713,848,o),
(920,1159,o),
(1065,1159,cs)
);
}
);
width = 1858;
}
);
unicode = 216;
},
{
glyphname = OE;
kernLeft = _O_left;
layers = (
{
layerId = "22B129CF-CF15-475D-9616-E64336B05864";
shapes = (
{
closed = 1;
nodes = (
(47,326,o),
(375,0,o),
(803,0,cs),
(2302,0,l),
(2302,469,l),
(1798,469,l),
(1798,621,l),
(2281,621,l),
(2281,1012,l),
(1798,1012,l),
(1798,1163,l),
(2302,1163,l),
(2302,1599,l),
(979,1599,ls),
(432,1599,o),
(47,1235,o),
(47,739,cs)
);
},
{
closed = 1;
nodes = (
(1165,1159,o),
(1210,1090,o),
(1210,997,cs),
(1210,797,o),
(1006,481,o),
(864,481,cs),
(743,481,o),
(696,551,o),
(696,647,cs),
(696,848,o),
(903,1159,o),
(1049,1159,cs)
);
}
);
width = 2363;
}
);
unicode = 338;
},
{
glyphname = P;
layers = (
{
layerId = "22B129CF-CF15-475D-9616-E64336B05864";
shapes = (
{
closed = 1;
nodes = (
(694,1642,o),
(434,1624,o),
(123,1593,c),
(123,0,l),
(776,0,l),
(776,289,l),
(846,289,o),
(901,285,o),
(954,285,cs),
(1370,285,o),
(1706,575,o),
(1706,991,cs),
(1706,1456,o),
(1475,1642,o),
(918,1642,cs)
);
},
{
closed = 1;
nodes = (
(1096,1227,o),
(1137,1169,o),
(1137,1102,cs),
(1137,946,o),
(1024,854,o),
(889,788,cs),
(772,731,l),
(772,1108,l),
(772,1108,o),
(930,1227,o),
(1024,1227,cs)
);
}
);
width = 1751;
}
);
unicode = 80;
},
{
glyphname = Thorn;
layers = (
{
layerId = "22B129CF-CF15-475D-9616-E64336B05864";
shapes = (
{
closed = 1;
nodes = (
(61,0,l),
(715,0,l),
(715,207,l),
(1311,221,o),
(1628,539,o),
(1628,1020,cs),
(1628,1296,o),
(1475,1536,o),
(1102,1536,cs),
(995,1536,o),
(866,1516,o),
(715,1468,c),
(715,1599,l),
(61,1599,l)
);
},
{
closed = 1;
nodes = (
(1016,1116,o),
(1055,1065,o),
(1055,999,cs),
(1055,854,o),
(950,764,o),
(821,702,cs),
(711,649,l),
(711,1006,l),
(711,1006,o),
(860,1116,o),
(948,1116,cs)
);
}
);
width = 1661;
}
);
unicode = 222;
},
{
glyphname = Q;
kernLeft = _O_left;
layers = (
{
layerId = "22B129CF-CF15-475D-9616-E64336B05864";
shapes = (
{
closed = 1;
nodes = (
(1145,-39,o),
(1325,10,o),
(1474,101,c),
(1607,15,o),
(1749,-39,o),
(1901,-39,cs),
(1929,-39,o),
(1962,-37,o),
(1993,-33,c),
(1993,-33,o),
(1991,408,o),
(1989,408,c),
(1937,408,o),
(1868,422,o),
(1789,448,c),
(1837,551,o),
(1864,668,o),
(1864,797,cs),
(1864,1325,o),
(1466,1642,o),
(958,1642,cs),
(475,1642,o),
(72,1307,o),
(72,805,cs),
(72,293,o),
(508,-39,o),
(958,-39,cs)
);
},
{
closed = 1;
nodes = (
(1190,1159,o),
(1235,1090,o),
(1235,997,cs),
(1235,922,o),
(1206,832,o),
(1163,747,c),
(1097,787,o),
(1031,828,o),
(969,870,c),
(860,707,l),
(908,650,o),
(956,592,o),
(1005,536,c),
(965,502,o),
(925,481,o),
(889,481,cs),
(768,481,o),
(721,551,o),
(721,647,cs),
(721,848,o),
(928,1159,o),
(1073,1159,cs)
);
}
);
width = 2015;
}
);
unicode = 81;
},
{
glyphname = R;
layers = (
{
anchors = (
{
name = top;
pos = (815,1554);
}
);
layerId = "22B129CF-CF15-475D-9616-E64336B05864";
shapes = (
{
closed = 1;
nodes = (
(772,1145,l),
(905,1200,ls),
(950,1219,o),
(991,1233,o),
(1030,1233,cs),
(1090,1233,o),
(1135,1200,o),
(1135,1092,cs),
(1135,963,o),
(1030,850,o),
(772,754,c)
);
},
{
closed = 1;
nodes = (
(1057,0,l),
(1847,0,l),
(1413,567,l),
(1597,676,o),
(1729,842,o),
(1729,1075,cs),
(1729,1341,o),
(1538,1642,o),
(1022,1642,cs),
(711,1642,o),
(123,1597,o),
(123,1597,c),
(123,0,l),
(776,0,l),
(776,463,l)
);
}
);
width = 1917;
}
);
unicode = 82;
},
{
glyphname = S;
layers = (
{
anchors = (
{
name = bot;
pos = (695,0);
},
{
name = top;
pos = (717,1554);
}
);
layerId = "22B129CF-CF15-475D-9616-E64336B05864";
shapes = (
{
closed = 1;
nodes = (
(100,72,l),
(100,72,o),
(219,-39,o),
(696,-39,cs),
(1111,-39,o),
(1356,165,o),
(1356,477,cs),
(1356,826,o),
(1123,935,o),
(842,1057,cs),
(805,1073,o),
(774,1106,o),
(774,1130,cs),
(774,1159,o),
(805,1184,o),
(866,1184,cs),
(999,1184,o),
(1257,1126,o),
(1257,1126,c),
(1257,1585,l),
(1221,1595,o),
(1014,1642,o),
(793,1642,cs),
(444,1642,o),
(96,1509,o),
(96,1133,cs),
(96,674,o),
(647,635,o),
(647,485,cs),
(647,438,o),
(606,424,o),
(547,424,cs),
(412,424,o),
(117,526,o),
(100,530,c)
);
}
);
width = 1446;
}
);
unicode = 83;
},
{
glyphname = T;
layers = (
{
anchors = (
{
name = top;
pos = (818,1555);
}
);
layerId = "22B129CF-CF15-475D-9616-E64336B05864";
shapes = (
{
closed = 1;
nodes = (
(57,1079,l),
(502,1079,l),
(502,0,l),
(1124,0,l),
(1124,1079,l),
(1569,1079,l),
(1569,1597,l),
(57,1597,l)
);
}
);
width = 1624;
}
);
unicode = 84;
},
{
glyphname = U;
layers = (
{
anchors = (
{
name = bot;
pos = (901,0);
},
{
name = top;
pos = (911,1554);
}
);
layerId = "22B129CF-CF15-475D-9616-E64336B05864";
shapes = (
{
closed = 1;
nodes = (
(106,637,ls),
(106,178,o),
(381,-39,o),
(901,-39,cs),
(1378,-39,o),
(1638,178,o),
(1638,637,cs),
(1638,1597,l),
(1085,1597,l),
(1085,659,ls),
(1085,545,o),
(1034,455,o),
(911,455,cs),
(788,455,o),
(737,541,o),
(737,655,cs),
(737,1597,l),
(106,1597,l)
);
}
);
width = 1745;
}
);
unicode = 85;
},
{
glyphname = V;
layers = (
{
layerId = "22B129CF-CF15-475D-9616-E64336B05864";
shapes = (
{
closed = 1;
nodes = (
(25,1597,l),
(852,2,ls),
(869,-31,o),
(904,-47,o),
(942,-47,cs),
(978,-47,o),
(1016,-29,o),
(1032,2,cs),
(1817,1597,l),
(1231,1597,l),
(999,1096,l),
(750,1597,l)
);
}
);
width = 1843;
}
);
unicode = 86;
},
{
glyphname = W;
layers = (
{
background = {
shapes = (
{
closed = 1;
nodes = (
(72,1579,l),
(645,-18,l),
(645,-18,o),
(659,-49,o),
(668,-49,cs),
(846,-49,l),
(1368,653,l),
(1835,-29,l),
(1841,-35,o),
(1858,-49,o),
(1868,-49,cs),
(2013,-49,ls),
(2034,-49,o),
(2050,-23,o),
(2056,-6,cs),
(2595,1599,l),
(2028,1599,l),
(1845,1034,l),
(1460,1579,ls),
(1444,1604,o),
(1440,1604,o),
(1409,1604,cs),
(1403,1604,o),
(1389,1602,o),
(1389,1599,c),
(963,1026,l),
(782,1579,l),
(760,1599,l),
(625,1599,l),
(72,1589,l)
);
},
{
closed = 1;
nodes = (
(1253,705,o),
(1253,698,o),
(1251,698,cs),
(1247,698,o),
(1247,705,o),
(1251,705,c)
);
},
{
closed = 1;
nodes = (
(586,623,o),
(586,616,o),
(584,616,cs),
(582,616,o),
(582,623,o),
(584,623,c)
);
}
);
};
layerId = "22B129CF-CF15-475D-9616-E64336B05864";
shapes = (
{
closed = 1;
nodes = (
(63,1597,l),
(625,45,ls),
(651,-26,o),
(697,-55,o),
(747,-55,cs),
(796,-55,o),
(847,-22,o),
(887,31,cs),
(1368,678,l),
(1815,33,ls),
(1857,-28,o),
(1907,-59,o),
(1956,-59,cs),
(2006,-59,o),
(2053,-25,o),
(2075,41,cs),
(2597,1597,l),
(2025,1597,l),
(1845,1034,l),
(1473,1563,ls),
(1447,1600,o),
(1434,1606,o),
(1417,1606,cs),
(1399,1606,o),
(1389,1599,o),
(1362,1563,cs),
(963,1028,l),
(780,1597,l)
);
}
);
width = 2664;
}
);
unicode = 87;
},
{
glyphname = X;
layers = (
{
background = {
shapes = (
{
closed = 1;
nodes = (
(559,834,l),
(125,-4,l),
(705,-4,l),
(817,-4,o),
(801,299,o),
(915,362,c),
(1100,-4,l),
(1800,-4,l),
(1831,27,l),
(1325,848,l),
(1710,1550,l),
(1710,1610,l),
(1190,1610,l),
(1184,1610,o),
(1141,1567,o),
(1128,1550,c),
(1108,1516,o),
(1022,1343,o),
(1008,1307,c),
(977,1307,l),
(963,1343,o),
(877,1516,o),
(854,1550,c),
(844,1567,o),
(803,1610,o),
(795,1610,c),
(156,1581,l),
(156,1520,l)
);
},
{
closed = 1;
nodes = (
(864,553,o),
(864,537,o),
(854,537,c),
(848,537,o),
(848,553,o),
(854,553,c)
);
},
{
closed = 1;
nodes = (
(1198,705,o),
(1198,688,o),
(1190,688,c),
(1184,688,o),
(1184,705,o),
(1190,705,c)
);
}
);
};
layerId = "22B129CF-CF15-475D-9616-E64336B05864";
shapes = (
{
closed = 1;
nodes = (
(1100,0,l),
(1837,0,l),
(1319,846,l),
(1737,1597,l),
(1178,1597,l),
(991,1278,l),
(813,1597,l),
(96,1597,l),
(567,831,l),
(131,0,l),
(727,0,l),
(909,365,l)
);
}
);
width = 1923;
}
);
unicode = 88;
},
{
glyphname = Y;
kernRight = _Y_right;
layers = (
{
anchors = (
{
name = top;
pos = (915,1554);
}
);
layerId = "22B129CF-CF15-475D-9616-E64336B05864";
shapes = (
{
closed = 1;
nodes = (
(530,0,l),
(1178,0,l),
(1178,623,l),
(1675,1597,l),
(1079,1597,l),
(915,1270,l),
(756,1597,l),
(43,1597,l),
(530,623,l)
);
}
);
width = 1718;
}
);
unicode = 89;
},
{
glyphname = Z;
layers = (
{
anchors = (
{
name = top;
pos = (948,1554);
}
);
layerId = "22B129CF-CF15-475D-9616-E64336B05864";
shapes = (
{
closed = 1;
nodes = (
(109,92,l),
(109,0,l),
(1726,0,l),
(1726,457,l),
(1110,457,l),
(1726,1475,l),
(1726,1597,l),
(170,1597,l),
(170,1114,l),
(721,1114,l)
);
}
);
width = 1845;
}
);
unicode = 90;
},
{
glyphname = a;
kernLeft = _o_left;
layers = (
{
anchors = (
{
name = top;
pos = (907,1243);
}
);
guides = (
{
angle = 90;
pos = (1069,0);
}
);
layerId = "22B129CF-CF15-475D-9616-E64336B05864";
shapes = (
{
closed = 1;
nodes = (
(84,156,o),
(358,-37,o),
(662,-37,cs),
(846,-37,o),
(1034,55,o),
(1137,207,c),
(1280,0,l),
(1608,0,l),
(1608,1243,l),
(1280,1243,l),
(1137,1090,l),
(1055,1217,o),
(907,1290,o),
(764,1290,cs),
(410,1290,o),
(84,1001,o),
(84,565,cs)
);
},
{
closed = 1;
nodes = (
(680,678,o),
(839,887,o),
(990,887,cs),
(1017,887,o),
(1044,881,o),
(1069,866,c),
(1069,512,l),
(956,416,o),
(844,379,o),
(778,379,cs),
(709,379,o),
(680,451,o),
(680,516,cs)
);
}
);
width = 1726;
}
);
unicode = 97;
},
{
glyphname = ae;
kernLeft = _o_left;
layers = (
{
associatedMasterId = "22B129CF-CF15-475D-9616-E64336B05864";
layerId = "B6CE1041-7538-4217-84EF-70C52ADE8BCB";
name = img;
width = 2468;
},
{
guides = (
{
angle = 90;
pos = (1057,0);
}
);
layerId = "22B129CF-CF15-475D-9616-E64336B05864";
shapes = (
{
closed = 1;
nodes = (
(1620,1292,o),
(1432,1237,o),
(1288,1126,c),
(1188,1239,o),
(928,1290,o),
(836,1290,cs),
(440,1290,o),
(74,1001,o),
(74,565,cs),
(74,156,o),
(348,-37,o),
(651,-37,cs),
(778,-37,o),
(936,0,o),
(1159,176,c),
(1284,35,o),
(1477,-37,o),
(1669,-37,cs),
(1929,-37,o),
(2185,20,o),
(2343,156,c),
(2281,467,l),
(2124,332,o),
(1921,301,o),
(1839,301,cs),
(1747,301,o),
(1642,307,o),
(1642,434,c),
(1673,432,o),
(1722,432,o),
(1747,432,cs),
(2148,432,o),
(2365,662,o),
(2365,885,cs),
(2365,1090,o),
(2202,1292,o),
(1815,1292,cs)
);
},
{
closed = 1;
nodes = (
(629,678,o),
(788,887,o),
(939,887,cs),
(966,887,o),
(993,881,o),
(1018,866,c),
(1018,512,l),
(905,416,o),
(793,379,o),
(727,379,cs),
(657,379,o),
(629,451,o),
(629,516,cs)
);
},
{
closed = 1;
nodes = (
(1851,975,o),
(1882,948,o),
(1882,887,cs),
(1882,879,o),
(1880,872,o),
(1880,864,c),
(1862,711,l),
(1642,662,l),
(1671,831,o),
(1657,963,o),
(1800,975,c)
);
}
);
width = 2468;
}
);
unicode = 230;
},
{
glyphname = b;
kernRight = _o_right;
layers = (
{
background = {
shapes = (
{
closed = 1;
nodes = (
(958,0,l),
(1556,0,l),
(1556,848,ls),
(1556,1126,o),
(1348,1290,o),
(1096,1290,cs),
(895,1290,o),
(690,1200,o),
(580,1049,c),
(436,1243,l),
(109,1243,l),
(109,0,l),
(702,0,l),
(702,776,ls),
(702,846,o),
(723,905,o),
(782,905,cs),
(891,905,o),
(958,817,o),
(958,600,cs)
);
}
);
};
guides = (
{
angle = 90;
pos = (1092,0);
}
);
layerId = "22B129CF-CF15-475D-9616-E64336B05864";
shapes = (
{
closed = 1;
nodes = (
(123,16,l),
(367,-23,o),
(592,-39,o),
(766,-39,cs),
(1460,-39,o),
(1657,432,o),
(1657,657,cs),
(1657,975,o),
(1470,1260,o),
(1106,1260,cs),
(1004,1260,o),
(827,1214,o),
(705,1096,c),
(705,1683,l),
(123,1683,l)
);
},
{
closed = 1;
nodes = (
(1065,844,o),
(1092,770,o),
(1092,707,cs),
(1092,539,o),
(936,336,o),
(801,336,cs),
(702,336,l),
(702,713,l),
(762,760,o),
(868,844,o),
(993,844,cs)
);
}
);
width = 1733;
}
);
unicode = 98;
},
{
glyphname = c;
kernLeft = _o_left;
layers = (
{
anchors = (
{
name = bot;
pos = (729,0);
},
{
name = top;
pos = (664,1243);
}
);
layerId = "22B129CF-CF15-475D-9616-E64336B05864";
shapes = (
{
closed = 1;
nodes = (
(1130,522,l),
(948,387,o),
(880,379,o),
(838,379,cs),
(785,379,o),
(721,395,o),
(721,514,cs),
(721,707,o),
(899,887,o),
(1036,887,cs),
(1063,887,o),
(1090,881,o),
(1110,864,c),
(1110,1249,l),
(1026,1282,o),
(907,1292,o),
(852,1292,cs),
(391,1292,o),
(74,1008,o),
(74,584,cs),
(74,178,o),
(414,-37,o),
(766,-37,cs),
(895,-37,o),
(1018,-10,o),
(1130,33,c)
);
}
);
width = 1243;
}
);
unicode = 99;
},
{
glyphname = d;
kernLeft = _o_left;
layers = (
{
anchors = (
{
name = top;
pos = (1755,1286);
}
);
background = {
shapes = (
{
closed = 1;
nodes = (
(1665,1597,l),
(1083,1597,l),
(1083,1096,l),
(961,1214,o),
(784,1260,o),
(682,1260,cs),
(317,1260,o),
(131,975,o),
(131,657,cs),
(131,432,o),
(328,-39,o),
(1022,-39,cs),
(1196,-39,o),
(1421,-23,o),
(1665,16,c)
);
},
{
closed = 1;
nodes = (
(920,844,o),
(1026,760,o),
(1085,713,c),
(1085,336,l),
(987,336,ls),
(852,336,o),
(696,539,o),
(696,707,cs),
(696,770,o),
(723,844,o),
(795,844,cs)
);
}
);
};
guides = (
{
angle = 90;
pos = (1174,0);
}
);
layerId = "22B129CF-CF15-475D-9616-E64336B05864";
shapes = (
{
closed = 1;
nodes = (
(74,186,o),
(369,-35,o),
(670,-35,cs),
(848,-35,o),
(1026,41,o),
(1151,207,c),
(1294,0,l),
(1665,0,l),
(1665,1683,l),
(1083,1683,l),
(1083,1249,l),
(997,1276,o),
(903,1288,o),
(809,1288,cs),
(449,1288,o),
(74,1063,o),
(74,559,cs)
);
},
{
closed = 1;
nodes = (
(721,379,o),
(694,453,o),
(694,516,cs),
(694,684,o),
(860,887,o),
(1006,887,cs),
(1032,887,o),
(1059,881,o),
(1083,866,c),
(1083,510,l),
(1024,463,o),
(918,379,o),
(793,379,cs)
);
}
);
width = 1786;
}
);
unicode = 100;
},
{
glyphname = dcroat;
kernLeft = _o_left;
layers = (
{
layerId = "22B129CF-CF15-475D-9616-E64336B05864";
shapes = (
{
closed = 1;
nodes = (
(896,1364,l),
(1083,1364,l),
(1083,1249,l),
(997,1276,o),
(903,1288,o),
(809,1288,cs),
(449,1288,o),
(74,1063,o),
(74,559,cs),
(74,186,o),
(369,-35,o),
(670,-35,cs),
(848,-35,o),
(1026,41,o),
(1151,207,c),
(1294,0,l),
(1665,0,l),
(1665,1364,l),
(1809,1364,l),
(1809,1513,l),
(1665,1513,l),
(1665,1683,l),
(1083,1683,l),
(1083,1513,l),
(896,1513,l)
);
},
{
closed = 1;
nodes = (
(721,379,o),
(694,453,o),
(694,516,cs),
(694,684,o),
(860,887,o),
(1006,887,cs),
(1032,887,o),
(1059,881,o),
(1083,866,c),
(1083,510,l),
(1024,463,o),
(918,379,o),
(793,379,cs)
);
}
);
width = 1786;
}
);
unicode = 273;
},
{
glyphname = dzcaron;
layers = (
{
background = {
shapes = (
{
closed = 1;
nodes = (
(74,186,o),
(369,-35,o),
(670,-35,cs),
(848,-35,o),
(1026,41,o),
(1151,207,c),
(1294,0,l),
(1665,0,l),
(1665,1683,l),
(1083,1683,l),
(1083,1249,l),
(997,1276,o),
(903,1288,o),
(809,1288,cs),
(449,1288,o),
(74,1063,o),
(74,559,cs)
);
},
{
closed = 1;
nodes = (
(721,379,o),
(694,453,o),
(694,516,cs),
(694,684,o),
(860,887,o),
(1006,887,cs),
(1032,887,o),
(1059,881,o),
(1083,866,c),
(1083,510,l),
(1024,463,o),
(918,379,o),
(793,379,cs)
);
},
{
closed = 1;
nodes = (
(1895,68,l),
(1895,0,l),
(3181,0,l),
(3181,356,l),
(2697,356,l),
(3181,1151,l),
(3181,1243,l),
(1942,1243,l),
(1942,866,l),
(2374,866,l)
);
},
{
closed = 1;
nodes = (
(751,989,ls),
(779,932,o),
(840,899,o),
(894,899,cs),
(949,899,o),
(1006,927,o),
(1036,989,cs),
(1240,1407,ls),
(1253,1434,o),
(1255,1454,o),
(1255,1470,cs),
(1255,1493,o),
(1244,1505,o),
(1226,1505,cs),
(1199,1505,o),
(1159,1482,o),
(1120,1446,cs),
(892,1239,l),
(667,1446,ls),
(626,1483,o),
(587,1505,o),
(560,1505,cs),
(542,1505,o),
(530,1493,o),
(530,1470,cs),
(530,1452,o),
(535,1433,o),
(546,1407,c)
);
}
);
};
layerId = "22B129CF-CF15-475D-9616-E64336B05864";
shapes = (
{
alignment = -1;
ref = d;
},
{
alignment = -1;
pos = (1725,0);
ref = z;
},
{
alignment = -1;
pos = (2102,563);
ref = caron;
}
);
width = 3208;
}
);
unicode = 454;
},
{
glyphname = eth;
layers = (
{
background = {
shapes = (
{
closed = 1;
nodes = (
(764,1067,l),
(911,1176,l),
(952,1120,o),
(1010,1022,o),
(1028,928,c),
(662,1049,o),
(94,997,o),
(74,506,c),
(74,80,o),
(457,-37,o),
(766,-37,cs),
(1186,-37,o),
(1587,188,o),
(1587,727,cs),
(1587,1034,o),
(1446,1286,o),
(1266,1436,c),
(1436,1561,l),
(1337,1690,l),
(1124,1532,l),
(987,1606,o),
(823,1640,o),
(647,1640,cs),
(492,1640,o),
(330,1604,o),
(158,1534,c),
(264,1231,l),
(383,1276,o),
(506,1313,o),
(629,1313,cs),
(694,1313,o),
(760,1303,o),
(823,1280,c),
(682,1178,l)
);
},
{
closed = 1;
nodes = (
(659,317,o),
(633,391,o),
(633,455,cs),
(633,586,o),
(799,743,o),
(944,743,cs),
(971,743,o),
(997,743,o),
(1022,723,c),
(1022,449,l),
(963,401,o),
(856,317,o),
(731,317,cs)
);
}
);
};
layerId = "22B129CF-CF15-475D-9616-E64336B05864";
shapes = (
{
closed = 1;
nodes = (
(760,1063,l),
(813,1245,l),
(938,1200,o),
(1028,1104,o),
(1028,928,c),
(923,963,o),
(802,983,o),
(681,983,cs),
(381,983,o),
(74,856,o),
(74,506,cs),
(74,80,o),
(457,-37,o),
(766,-37,cs),
(1186,-37,o),
(1587,188,o),
(1587,727,cs),
(1587,1182,o),
(1298,1489,o),
(911,1573,c),
(983,1815,l),
(776,1855,l),
(698,1597,l),
(688,1597,ls),
(516,1597,o),
(395,1577,o),
(207,1532,c),
(264,1229,l),
(359,1257,o),
(482,1278,o),
(602,1278,c),
(551,1104,l)
);
},
{
closed = 1;
nodes = (
(659,289,o),
(633,362,o),
(633,426,cs),
(633,557,o),
(799,715,o),
(944,715,cs),
(971,715,o),
(997,715,o),
(1022,694,c),
(1022,420,l),
(963,373,o),
(856,289,o),
(731,289,cs)
);
}
);
width = 1663;
}
);
unicode = 240;
},
{
glyphname = e;
kernLeft = _o_left;
layers = (
{
anchors = (
{
name = top;
pos = (811,1241);
}
);
guides = (
{
pos = (0,348);
}
);
layerId = "22B129CF-CF15-475D-9616-E64336B05864";
shapes = (
{
closed = 1;
nodes = (
(903,975,o),
(934,948,o),
(934,887,cs),
(934,879,o),
(932,872,o),
(932,864,c),
(913,711,l),
(694,662,l),
(723,831,o),
(709,963,o),
(852,975,c)
);
},
{
closed = 1;
nodes = (
(457,1292,o),
(74,1047,o),
(74,559,cs),
(74,168,o),
(399,-37,o),
(721,-37,cs),
(981,-37,o),
(1237,20,o),
(1395,156,c),
(1333,467,l),
(1176,332,o),
(973,301,o),
(891,301,cs),
(799,301,o),
(694,307,o),
(694,434,c),
(725,432,o),
(774,432,o),
(799,432,cs),
(1200,432,o),
(1417,662,o),
(1417,885,cs),
(1417,1090,o),
(1253,1292,o),
(866,1292,cs)
);
}
);
width = 1505;
}
);
unicode = 101;
},
{
glyphname = f;
layers = (
{
layerId = "22B129CF-CF15-475D-9616-E64336B05864";
shapes = (
{
closed = 1;
nodes = (
(68,926,l),
(182,926,l),
(182,0,l),
(780,0,l),
(780,926,l),
(1063,926,l),
(1063,1243,l),
(780,1243,l),
(788,1346,o),
(838,1427,o),
(965,1427,cs),
(993,1427,o),
(1024,1423,o),
(1061,1413,c),
(1061,1712,l),
(948,1778,o),
(795,1815,o),
(643,1815,cs),
(391,1815,o),
(182,1683,o),
(182,1454,cs),
(182,1243,l),
(68,1243,l)
);
}
);
width = 1122;
}
);
unicode = 102;
},
{
glyphname = g;
kernLeft = _o_left;
layers = (
{
anchors = (
{
name = top;
pos = (755,1241);
}
);
guides = (
{
angle = 90;
pos = (963,0);
}
);
layerId = "22B129CF-CF15-475D-9616-E64336B05864";
shapes = (
{
closed = 1;
nodes = (
(1077,-127,o),
(948,-186,o),
(805,-186,cs),
(725,-186,o),
(641,-166,o),
(573,-158,c),
(573,-512,l),
(678,-539,o),
(799,-555,o),
(922,-555,cs),
(1255,-555,o),
(1591,-426,o),
(1591,0,cs),
(1591,1243,l),
(1264,1243,l),
(1120,1090,l),
(1038,1217,o),
(891,1290,o),
(748,1290,cs),
(393,1290,o),
(74,1008,o),
(74,571,cs),
(74,164,o),
(342,-37,o),
(645,-37,cs),
(805,-37,o),
(961,27,o),
(1077,154,c)
);
},
{
closed = 1;
nodes = (
(690,379,o),
(664,453,o),
(664,516,cs),
(664,684,o),
(829,887,o),
(975,887,cs),
(1001,887,o),
(1028,881,o),
(1053,866,c),
(1053,510,l),
(993,463,o),
(887,379,o),
(762,379,cs)
);
}
);
width = 1702;
}
);
unicode = 103;
},
{
glyphname = h;
layers = (
{
layerId = "22B129CF-CF15-475D-9616-E64336B05864";
shapes = (
{
closed = 1;
nodes = (
(715,0,l),
(715,776,ls),
(715,850,o),
(741,907,o),
(811,907,cs),
(901,907,o),
(985,760,o),
(985,539,cs),
(985,0,l),
(1583,0,l),
(1583,766,ls),
(1583,1094,o),
(1370,1290,o),
(1102,1290,cs),
(950,1290,o),
(801,1225,o),
(715,1110,c),
(715,1683,l),
(121,1683,l),
(121,0,l)
);
}
);
width = 1695;
}
);
unicode = 104;
},
{
glyphname = hbar;
layers = (
{
layerId = "22B129CF-CF15-475D-9616-E64336B05864";
shapes = (
{
closed = 1;
nodes = (
(-10,1336,l),
(146,1336,l),
(146,0,l),
(740,0,l),
(740,776,ls),
(740,850,o),
(766,907,o),
(836,907,cs),
(926,907,o),
(1010,760,o),
(1010,539,cs),
(1010,0,l),
(1608,0,l),
(1608,766,ls),
(1608,1094,o),
(1395,1290,o),
(1127,1290,cs),
(975,1290,o),
(826,1225,o),
(740,1110,c),
(740,1336,l),
(903,1336,l),
(903,1539,l),
(740,1539,l),
(740,1683,l),
(146,1683,l),
(146,1539,l),
(-10,1539,l)
);
}
);
width = 1649;
}
);
unicode = 295;
},
{
glyphname = i;
layers = (
{
anchors = (
{
name = bot;
pos = (412,0);
}
);
layerId = "22B129CF-CF15-475D-9616-E64336B05864";
shapes = (
{
closed = 1;
nodes = (
(217,1819,o),
(106,1677,o),
(106,1550,cs),
(106,1444,o),
(180,1346,o),
(385,1346,cs),
(598,1346,o),
(717,1483,o),
(717,1608,cs),
(717,1718,o),
(629,1819,o),
(440,1819,cs)
);
},
{
closed = 1;
nodes = (
(700,1243,l),
(121,1243,l),
(121,0,l),
(700,0,l)
);
}
);
width = 821;
}
);
unicode = 105;
},
{
glyphname = dotlessi;
layers = (
{
anchors = (
{
name = top;
pos = (354,1243);
}
);
layerId = "22B129CF-CF15-475D-9616-E64336B05864";
shapes = (
{
closed = 1;
nodes = (
(639,1243,l),
(61,1243,l),
(61,0,l),
(639,0,l)
);
}
);
width = 700;
}
);
unicode = 305;
},
{
glyphname = ij;
layers = (
{
layerId = "22B129CF-CF15-475D-9616-E64336B05864";
shapes = (
{
closed = 1;
nodes = (
(736,-258,l),
(850,-349,o),
(1004,-402,o),
(1156,-402,cs),
(1407,-402,o),
(1616,-238,o),
(1616,41,cs),
(1616,1243,l),
(1018,1243,l),
(1018,177,ls),
(1018,61,o),
(916,-87,o),
(842,-87,cs),
(799,-87,o),
(764,-81,o),
(738,-70,c)
);
},
{
closed = 1;
nodes = (
(1121,1819,o),
(1010,1677,o),
(1010,1550,cs),
(1010,1444,o),
(1084,1346,o),
(1289,1346,cs),
(1502,1346,o),
(1620,1483,o),
(1620,1608,cs),
(1620,1718,o),
(1532,1819,o),
(1344,1819,cs)
);
},
{
alignment = -1;
ref = i;
}
);
width = 1721;
}
);
unicode = 307;
},
{
glyphname = j;
layers = (
{
layerId = "22B129CF-CF15-475D-9616-E64336B05864";
shapes = (
{
closed = 1;
nodes = (
(31,-188,l),
(145,-279,o),
(299,-332,o),
(451,-332,cs),
(702,-332,o),
(911,-168,o),
(911,111,cs),
(911,1243,l),
(313,1243,l),
(313,317,ls),
(313,201,o),
(211,53,o),
(137,53,cs),
(94,53,o),
(59,59,o),
(33,70,c)
);
},
{
closed = 1;
nodes = (
(416,1819,o),
(305,1677,o),
(305,1550,cs),
(305,1444,o),
(379,1346,o),
(584,1346,cs),
(797,1346,o),
(915,1483,o),
(915,1608,cs),
(915,1718,o),
(827,1819,o),
(639,1819,cs)
);
}
);
width = 1016;
}
);
unicode = 106;
},
{
glyphname = dotlessj;
layers = (
{
anchors = (
{
name = top;
pos = (602,1243);
}
);
layerId = "22B129CF-CF15-475D-9616-E64336B05864";
shapes = (
{
closed = 1;
nodes = (
(29,-188,l),
(143,-279,o),
(297,-332,o),
(449,-332,cs),
(700,-332,o),
(909,-168,o),
(909,111,cs),
(909,1243,l),
(311,1243,l),
(311,317,ls),
(311,201,o),
(209,53,o),
(135,53,cs),
(92,53,o),
(57,59,o),
(31,70,c)
);
}
);
width = 965;
}
);
unicode = 567;
},
{
glyphname = k;
layers = (
{
anchors = (
{
name = bot;
pos = (731,0);
}
);
layerId = "22B129CF-CF15-475D-9616-E64336B05864";
shapes = (
{
closed = 1;
nodes = (
(123,1683,l),
(123,0,l),
(651,0,l),
(651,369,l),
(653,379,o),
(662,393,o),
(668,403,c),
(918,0,l),
(1528,0,l),
(1083,700,l),
(1466,1243,l),
(877,1243,l),
(641,872,l),
(641,1683,l)
);
}
);
width = 1544;
}
);
unicode = 107;
},
{
glyphname = kgreenlandic;
layers = (
{
layerId = "22B129CF-CF15-475D-9616-E64336B05864";
shapes = (
{
closed = 1;
nodes = (
(123,1243,l),
(123,0,l),
(651,0,l),
(651,416,l),
(918,0,l),
(1528,0,l),
(1071,668,l),
(1466,1243,l),
(877,1243,l),
(641,852,l),
(641,1243,l)
);
}
);
width = 1556;
}
);
unicode = 312;
},
{
glyphname = l;
layers = (
{
anchors = (
{
name = top;
pos = (412,1612);
}
);
layerId = "22B129CF-CF15-475D-9616-E64336B05864";
shapes = (
{
closed = 1;
nodes = (
(690,1683,l),
(123,1683,l),
(123,0,l),
(690,0,l)
);
}
);
width = 811;
}
);
unicode = 108;
},
{
glyphname = lj;
layers = (
{
layerId = "22B129CF-CF15-475D-9616-E64336B05864";
shapes = (
{
closed = 1;
nodes = (
(690,1683,l),
(123,1683,l),
(123,0,l),
(690,0,l)
);
},
{
closed = 1;
nodes = (
(842,-188,l),
(956,-279,o),
(1110,-332,o),
(1262,-332,cs),
(1513,-332,o),
(1722,-168,o),
(1722,111,cs),
(1722,1241,l),
(1124,1241,l),
(1124,317,ls),
(1124,201,o),
(1022,53,o),
(948,53,cs),
(905,53,o),
(870,59,o),
(844,70,c)
);
},
{
closed = 1;
nodes = (
(1227,1819,o),
(1116,1677,o),
(1116,1550,cs),
(1116,1444,o),
(1190,1346,o),
(1395,1346,cs),
(1608,1346,o),
(1726,1483,o),
(1726,1608,cs),
(1726,1718,o),
(1638,1819,o),
(1450,1819,cs)
);
}
);
width = 1827;
}
);
unicode = 457;
},
{
glyphname = lslash;
layers = (
{
layerId = "22B129CF-CF15-475D-9616-E64336B05864";
shapes = (
{
closed = 1;
nodes = (
(690,1774,l),
(123,1774,l),
(123,973,l),
(-55,911,l),
(-55,541,l),
(123,604,l),
(123,0,l),
(690,0,l),
(690,805,l),
(872,870,l),
(872,1241,l),
(690,1176,l)
);
}
);
width = 741;
}
);
unicode = 322;
},
{
glyphname = m;
layers = (
{
layerId = "22B129CF-CF15-475D-9616-E64336B05864";
shapes = (
{
closed = 1;
nodes = (
(930,0,l),
(1497,0,l),
(1497,791,l),
(1497,854,o),
(1522,905,o),
(1577,905,cs),
(1634,905,o),
(1704,819,o),
(1704,641,cs),
(1704,0,l),
(2284,0,l),
(2284,848,ls),
(2284,1126,o),
(2093,1290,o),
(1864,1290,cs),
(1708,1290,o),
(1554,1210,o),
(1446,1073,c),
(1374,1212,o),
(1235,1290,o),
(1077,1290,cs),
(893,1290,o),
(694,1200,o),
(592,1049,c),
(449,1243,l),
(121,1243,l),
(121,0,l),
(715,0,l),
(715,776,ls),
(715,846,o),
(735,905,o),
(795,905,cs),
(852,905,o),
(930,819,o),
(930,641,cs)
);
}
);
width = 2396;
}
);
unicode = 109;
},
{
glyphname = n;
layers = (
{
anchors = (
{
name = top;
pos = (836,1243);
}
);
layerId = "22B129CF-CF15-475D-9616-E64336B05864";
shapes = (
{
closed = 1;
nodes = (
(971,0,l),
(1569,0,l),
(1569,848,ls),
(1569,1126,o),
(1360,1290,o),
(1108,1290,cs),
(907,1290,o),
(702,1200,o),
(592,1049,c),
(449,1243,l),
(121,1243,l),
(121,0,l),
(715,0,l),
(715,776,ls),
(715,846,o),
(735,905,o),
(795,905,cs),
(903,905,o),
(971,817,o),
(971,600,cs)
);
}
);
width = 1681;
}
);
unicode = 110;
},
{
glyphname = nj;
layers = (
{
layerId = "22B129CF-CF15-475D-9616-E64336B05864";
shapes = (
{
closed = 1;
nodes = (
(971,0,l),
(1569,0,l),
(1569,848,ls),
(1569,1126,o),
(1360,1290,o),
(1108,1290,cs),
(907,1290,o),
(702,1200,o),
(592,1049,c),
(449,1243,l),
(121,1243,l),
(121,0,l),
(715,0,l),
(715,776,ls),
(715,846,o),
(735,905,o),
(795,905,cs),
(903,905,o),
(971,817,o),
(971,600,cs)
);
},
{
closed = 1;
nodes = (
(1601,-338,l),
(1715,-387,o),
(1869,-412,o),
(2021,-412,cs),
(2272,-412,o),
(2481,-248,o),
(2481,31,cs),
(2481,1241,l),
(1883,1241,l),
(1883,167,ls),
(1883,51,o),
(1781,-97,o),
(1707,-97,cs),
(1664,-97,o),
(1629,-91,o),
(1603,-80,c)
);
},
{
closed = 1;
nodes = (
(1986,1819,o),
(1875,1677,o),
(1875,1550,cs),
(1875,1444,o),
(1949,1346,o),
(2154,1346,cs),
(2367,1346,o),
(2485,1483,o),
(2485,1608,cs),
(2485,1718,o),
(2397,1819,o),
(2209,1819,cs)
);
}
);
width = 2586;
}
);
unicode = 460;
},
{
glyphname = o;
kernLeft = _o_left;
kernRight = _o_right;
layers = (
{
anchors = (
{
name = top;
pos = (784,1241);
}
);
guides = (
{
angle = 90;
pos = (1004,0);
}
);
layerId = "22B129CF-CF15-475D-9616-E64336B05864";
shapes = (
{
closed = 1;
nodes = (
(1010,899,o),
(1038,840,o),
(1038,780,cs),
(1038,623,o),
(838,367,o),
(721,367,cs),
(631,367,o),
(602,426,o),
(602,485,cs),
(602,657,o),
(795,899,o),
(934,899,cs)
);
},
{
closed = 1;
nodes = (
(1167,-37,o),
(1511,217,o),
(1511,623,cs),
(1511,1036,o),
(1192,1290,o),
(784,1290,cs),
(397,1290,o),
(74,1024,o),
(74,627,cs),
(74,223,o),
(426,-37,o),
(784,-37,cs)
);
}
);
width = 1587;
}
);
unicode = 111;
},
{
glyphname = oslash;
kernLeft = _o_left;
kernRight = _o_right;
layers = (
{
layerId = "22B129CF-CF15-475D-9616-E64336B05864";
shapes = (
{
closed = 1;
nodes = (
(1167,-37,o),
(1511,217,o),
(1511,623,cs),
(1511,901,o),
(1366,1108,o),
(1147,1212,c),
(1217,1399,l),
(1053,1454,l),
(981,1270,l),
(918,1282,o),
(852,1290,o),
(784,1290,cs),
(397,1290,o),
(74,1024,o),
(74,627,cs),
(74,334,o),
(258,117,o),
(496,18,c),
(438,-129,l),
(602,-184,l),
(664,-27,l),
(705,-33,o),
(743,-37,o),
(784,-37,cs)
);
},
{
closed = 1;
nodes = (
(1010,899,o),
(1038,840,o),
(1038,780,cs),
(1038,623,o),
(838,367,o),
(721,367,cs),
(631,367,o),
(602,426,o),
(602,485,cs),
(602,657,o),
(795,899,o),
(934,899,cs)
);
}
);
width = 1587;
}
);
unicode = 248;
},
{
glyphname = oe;
kernLeft = _o_left;
layers = (
{
layerId = "22B129CF-CF15-475D-9616-E64336B05864";
shapes = (
{
closed = 1;
nodes = (
(901,-37,o),
(1073,27,o),
(1210,137,c),
(1331,20,o),
(1481,-37,o),
(1634,-37,cs),
(1853,-37,o),
(2116,20,o),
(2226,156,c),
(2165,467,l),
(1959,330,o),
(1853,326,o),
(1779,326,cs),
(1696,326,o),
(1612,328,o),
(1612,414,c),
(1642,412,o),
(1667,412,o),
(1692,412,cs),
(2048,412,o),
(2258,668,o),
(2258,903,cs),
(2258,1105,o),
(2105,1292,o),
(1759,1292,cs),
(1563,1292,o),
(1376,1231,o),
(1233,1106,c),
(1114,1223,o),
(956,1290,o),
(782,1290,cs),
(309,1290,o),
(74,944,o),
(74,606,cs),
(74,281,o),
(291,-37,o),
(721,-37,cs)
);
},
{
closed = 1;
nodes = (
(940,897,o),
(973,844,o),
(973,776,cs),
(973,623,o),
(823,381,o),
(721,381,cs),
(635,381,o),
(606,434,o),
(606,508,cs),
(606,662,o),
(754,897,o),
(860,897,cs)
);
},
{
closed = 1;
nodes = (
(1755,975,o),
(1786,948,o),
(1786,887,cs),
(1786,879,o),
(1784,872,o),
(1784,864,c),
(1765,711,l),
(1559,662,l),
(1583,831,o),
(1579,963,o),
(1704,975,c)
);
}
);
width = 2544;
}
);
unicode = 339;
},
{
glyphname = p;
kernRight = _o_right;
layers = (
{
guides = (
{
angle = 90;
pos = (1063,0);
}
);
layerId = "22B129CF-CF15-475D-9616-E64336B05864";
shapes = (
{
closed = 1;
nodes = (
(924,1290,o),
(748,1223,o),
(588,1051,c),
(449,1243,l),
(121,1243,l),
(121,-324,l),
(715,-324,l),
(715,0,l),
(1350,12,o),
(1569,467,o),
(1569,788,cs),
(1569,1065,o),
(1399,1290,o),
(1063,1290,cs)
);
},
{
closed = 1;
nodes = (
(1042,877,o),
(1075,831,o),
(1075,776,cs),
(1075,555,o),
(784,399,o),
(715,352,c),
(715,639,l),
(766,758,o),
(874,877,o),
(963,877,cs)
);
}
);
width = 1645;
}
);
unicode = 112;
},
{
glyphname = thorn;
layers = (
{
background = {
shapes = (
{
closed = 1;
nodes = (
(102,16,l),
(346,-23,o),
(571,-39,o),
(745,-39,cs),
(1440,-39,o),
(1636,432,o),
(1636,657,cs),
(1636,975,o),
(1450,1260,o),
(1085,1260,cs),
(983,1260,o),
(807,1214,o),
(684,1096,c),
(684,1597,l),
(102,1597,l)
);
},
{
closed = 1;
nodes = (
(1044,844,o),
(1071,770,o),
(1071,707,cs),
(1071,539,o),
(915,336,o),
(780,336,cs),
(682,336,l),
(682,713,l),
(741,760,o),
(848,844,o),
(973,844,cs)
);
}
);
};
layerId = "22B129CF-CF15-475D-9616-E64336B05864";
shapes = (
{
closed = 1;
nodes = (
(102,-354,l),
(680,-354,l),
(680,-39,l),
(745,-39,ls),
(1440,-39,o),
(1636,432,o),
(1636,657,cs),
(1636,975,o),
(1450,1260,o),
(1085,1260,cs),
(983,1260,o),
(807,1214,o),
(684,1096,c),
(684,1597,l),
(102,1597,l)
);
},
{
closed = 1;
nodes = (
(1044,844,o),
(1071,770,o),
(1071,707,cs),
(1071,539,o),
(915,336,o),
(780,336,cs),
(682,336,l),
(682,713,l),
(741,760,o),
(848,844,o),
(973,844,cs)
);
}
);
width = 1722;
}
);
unicode = 254;
},
{
glyphname = q;
kernLeft = _o_left;
layers = (
{
guides = (
{
angle = 90;
pos = (1077,0);
}
);
layerId = "22B129CF-CF15-475D-9616-E64336B05864";
shapes = (
{
closed = 1;
nodes = (
(1583,1229,l),
(1348,1268,o),
(1149,1284,o),
(981,1284,cs),
(201,1284,o),
(74,797,o),
(74,565,cs),
(74,248,o),
(262,-37,o),
(641,-37,cs),
(743,-37,o),
(920,8,o),
(1042,127,c),
(1042,-326,l),
(1583,-326,l)
);
},
{
closed = 1;
nodes = (
(682,379,o),
(655,453,o),
(655,516,cs),
(655,684,o),
(821,887,o),
(967,887,cs),
(993,887,o),
(1020,881,o),
(1044,866,c),
(1044,510,l),
(985,463,o),
(879,379,o),
(754,379,cs)
);
}
);
width = 1704;
}
);
unicode = 113;
},
{
glyphname = r;
layers = (
{
anchors = (
{
name = bot;
pos = (520,0);
},
{
name = top;
pos = (528,1243);
}
);
layerId = "22B129CF-CF15-475D-9616-E64336B05864";
shapes = (
{
closed = 1;
nodes = (
(1010,1288,l),
(897,1276,o),
(791,1212,o),
(723,1110,c),
(723,1243,l),
(121,1243,l),
(121,0,l),
(723,0,l),
(723,580,ls),
(723,659,o),
(885,774,o),
(1010,774,c)
);
}
);
width = 1065;
}
);
unicode = 114;
},
{
glyphname = s;
layers = (
{
anchors = (
{
name = bot;
pos = (585,0);
},
{
name = top;
pos = (580,1243);
}
);
layerId = "22B129CF-CF15-475D-9616-E64336B05864";
shapes = (
{
closed = 1;
nodes = (
(100,53,l),
(100,53,o),
(199,-37,o),
(584,-37,cs),
(907,-37,o),
(1118,102,o),
(1118,377,cs),
(1118,664,o),
(954,726,o),
(743,812,cs),
(674,840,o),
(657,858,o),
(657,879,cs),
(657,901,o),
(678,922,o),
(717,922,cs),
(817,922,o),
(1040,870,o),
(1040,870,c),
(1040,1247,l),
(1010,1255,o),
(840,1290,o),
(659,1290,cs),
(377,1290,o),
(96,1184,o),
(96,885,cs),
(96,500,o),
(479,520,o),
(479,397,cs),
(479,360,o),
(453,348,o),
(414,348,cs),
(299,348,o),
(137,422,o),
(100,424,c)
);
}
);
width = 1202;
}
);
unicode = 115;
},
{
glyphname = germandbls;
layers = (
{
guides = (
{
angle = 90;
pos = (680,0);
}
);
layerId = "22B129CF-CF15-475D-9616-E64336B05864";
shapes = (
{
closed = 1;
nodes = (
(55,-55,l),
(680,-55,l),
(680,1112,ls),
(680,1135,o),
(809,1233,o),
(887,1233,cs),
(928,1233,o),
(975,1206,o),
(975,1147,cs),
(975,1042,o),
(874,979,o),
(817,950,c),
(817,725,l),
(860,735,o),
(918,758,o),
(961,758,cs),
(1012,758,o),
(1053,733,o),
(1053,641,cs),
(1053,487,o),
(924,434,o),
(817,373,c),
(817,-57,l),
(827,-59,o),
(842,-59,o),
(846,-59,cs),
(1212,-59,o),
(1761,-16,o),
(1761,487,cs),
(1761,817,o),
(1583,881,o),
(1407,936,c),
(1552,1004,o),
(1640,1071,o),
(1640,1219,cs),
(1640,1458,o),
(1337,1595,o),
(975,1595,cs),
(522,1595,o),
(55,1430,o),
(55,989,cs)
);
}
);
width = 1806;
}
);
unicode = 223;
},
{
glyphname = t;
layers = (
{
anchors = (
{
name = top;
pos = (918,1243);
}
);
layerId = "22B129CF-CF15-475D-9616-E64336B05864";
shapes = (
{
closed = 1;
nodes = (
(66,926,l),
(180,926,l),
(180,406,ls),
(180,127,o),
(389,-39,o),
(641,-39,cs),
(793,-39,o),
(946,12,o),
(1061,90,c),
(1061,344,l),
(846,344,o),
(778,430,o),
(778,612,cs),
(778,926,l),
(1061,926,l),
(1061,1243,l),
(778,1243,l),
(778,1640,l),
(180,1579,l),
(180,1243,l),
(66,1243,l)
);
}
);
width = 1124;
}
);
unicode = 116;
},
{
glyphname = u;
layers = (
{
anchors = (
{
name = bot;
pos = (1346,0);
},
{
name = top;
pos = (842,1241);
}
);
layerId = "22B129CF-CF15-475D-9616-E64336B05864";
shapes = (
{
closed = 1;
nodes = (
(711,1243,l),
(113,1243,l),
(113,395,ls),
(113,117,o),
(322,-47,o),
(573,-47,cs),
(774,-47,o),
(979,43,o),
(1090,195,c),
(1233,0,l),
(1561,0,l),
(1561,1243,l),
(967,1243,l),
(967,467,ls),
(967,389,o),
(950,336,o),
(870,336,cs),
(788,336,o),
(711,408,o),
(711,664,cs)
);
}
);
width = 1679;
}
);
unicode = 117;
},
{
glyphname = v;
layers = (
{
layerId = "22B129CF-CF15-475D-9616-E64336B05864";
shapes = (
{
closed = 1;
nodes = (
(25,1243,l),
(670,2,ls),
(683,-23,o),
(718,-37,o),
(750,-37,cs),
(784,-37,o),
(817,-23,o),
(829,2,cs),
(1442,1243,l),
(965,1243,l),
(909,1122,o),
(850,999,o),
(795,877,c),
(610,1243,l)
);
}
);
width = 1470;
}
);
unicode = 118;
},
{
glyphname = w;
layers = (
{
layerId = "22B129CF-CF15-475D-9616-E64336B05864";
shapes = (
{
closed = 1;
nodes = (
(514,-8,l),
(680,-8,l),
(1063,510,l),
(1421,-8,l),
(1587,-8,l),
(2009,1243,l),
(1554,1243,l),
(1513,1112,o),
(1462,969,o),
(1421,838,c),
(1135,1243,l),
(1071,1243,l),
(975,1110,o),
(862,963,o),
(764,829,c),
(629,1243,l),
(69,1243,l)
);
}
);
width = 2079;
}
);
unicode = 119;
},
{
glyphname = x;
layers = (
{
background = {
shapes = (
{
closed = 1;
nodes = (
(436,645,l),
(100,-4,l),
(559,-4,ls),
(616,-4,o),
(635,61,o),
(655,129,cs),
(672,188,o),
(688,248,o),
(717,272,c),
(856,-4,l),
(1415,-4,l),
(1442,23,l),
(1317,227,o),
(1178,451,o),
(1051,655,c),
(1350,1204,l),
(1350,1245,l),
(936,1245,ls),
(924,1245,o),
(887,1212,o),
(877,1200,c),
(860,1171,o),
(793,1034,o),
(782,1012,c),
(770,1038,o),
(705,1171,o),
(686,1200,cs),
(678,1212,o),
(639,1245,o),
(629,1245,cs),
(123,1223,l),
(123,1180,l)
);
},
{
closed = 1;
nodes = (
(684,428,o),
(684,414,o),
(676,414,cs),
(670,414,o),
(670,428,o),
(676,428,cs)
);
},
{
closed = 1;
nodes = (
(942,545,o),
(942,532,o),
(936,532,cs),
(930,532,o),
(930,545,o),
(936,545,cs)
);
}
);
};
layerId = "22B129CF-CF15-475D-9616-E64336B05864";
shapes = (
{
closed = 1;
nodes = (
(657,1243,l),
(90,1243,l),
(436,645,l),
(100,0,l),
(600,0,l),
(715,283,l),
(856,0,l),
(1454,0,l),
(1053,655,l),
(1364,1243,l),
(903,1243,l),
(780,1010,l)
);
}
);
width = 1530;
}
);
unicode = 120;
},
{
glyphname = y;
layers = (
{
anchors = (
{
name = top;
pos = (889,1241);
}
);
layerId = "22B129CF-CF15-475D-9616-E64336B05864";
shapes = (
{
closed = 1;
nodes = (
(1624,1243,l),
(1100,1243,l),
(899,762,l),
(684,1243,l),
(88,1243,l),
(602,197,l),
(608,176,o),
(612,158,o),
(612,139,cs),
(612,61,o),
(555,-2,o),
(467,-2,cs),
(379,-2,o),
(260,12,o),
(201,27,c),
(201,-328,l),
(291,-365,o),
(455,-385,o),
(614,-385,cs),
(903,-385,o),
(1048,-188,o),
(1157,82,cs)
);
}
);
width = 1651;
}
);
unicode = 121;
},
{
glyphname = z;
layers = (
{
anchors = (
{
name = top;
pos = (770,1243);
}
);
layerId = "22B129CF-CF15-475D-9616-E64336B05864";
shapes = (
{
closed = 1;
nodes = (
(109,68,l),
(109,0,l),
(1395,0,l),
(1395,356,l),
(911,356,l),
(1395,1151,l),
(1395,1243,l),
(156,1243,l),
(156,866,l),
(588,866,l)
);
}
);
width = 1483;
}
);
unicode = 122;
},
{
glyphname = ff;
layers = (
{
layerId = "22B129CF-CF15-475D-9616-E64336B05864";
shapes = (
{
closed = 1;
nodes = (
(780,926,l),
(1176,926,l),
(1176,0,l),
(1774,0,l),
(1774,926,l),
(2056,926,l),
(2056,1243,l),
(1774,1243,l),
(1782,1346,o),
(1831,1427,o),
(1958,1427,cs),
(1987,1427,o),
(2017,1423,o),
(2054,1413,c),
(2054,1712,l),
(1942,1778,o),
(1788,1815,o),
(1636,1815,cs),
(1384,1815,o),
(1176,1683,o),
(1176,1454,cs),
(1176,1243,l),
(780,1243,l),
(788,1346,o),
(838,1427,o),
(965,1427,cs),
(993,1427,o),
(1024,1423,o),
(1061,1413,c),
(1061,1712,l),
(948,1778,o),
(795,1815,o),
(643,1815,cs),
(391,1815,o),
(182,1683,o),
(182,1454,cs),
(182,1243,l),
(68,1243,l),
(68,926,l),
(182,926,l),
(182,0,l),
(780,0,l)
);
}
);
width = 2116;
}
);
unicode = 64256;
},
{
glyphname = ffi;
layers = (
{
layerId = "22B129CF-CF15-475D-9616-E64336B05864";
shapes = (
{
closed = 1;
nodes = (
(68,926,l),
(264,926,l),
(264,0,l),
(862,0,l),
(862,926,l),
(1305,926,l),
(1305,0,l),
(1903,0,l),
(1903,926,l),
(2367,926,l),
(2367,0,l),
(2935,0,l),
(2935,1243,l),
(1903,1243,l),
(1913,1384,o),
(2001,1468,o),
(2116,1468,cs),
(2144,1468,o),
(2173,1464,o),
(2204,1454,c),
(2204,1753,l),
(2085,1819,o),
(1925,1855,o),
(1765,1855,cs),
(1513,1855,o),
(1305,1724,o),
(1305,1495,cs),
(1305,1243,l),
(862,1243,l),
(870,1346,o),
(920,1427,o),
(1047,1427,cs),
(1075,1427,o),
(1106,1423,o),
(1143,1413,c),
(1143,1712,l),
(1030,1778,o),
(877,1815,o),
(725,1815,cs),
(473,1815,o),
(264,1683,o),
(264,1454,cs),
(264,1243,l),
(68,1243,l)
);
},
{
closed = 1;
nodes = (
(2447,1819,o),
(2337,1677,o),
(2337,1550,cs),
(2337,1444,o),
(2410,1346,o),
(2615,1346,cs),
(2828,1346,o),
(2947,1483,o),
(2947,1608,cs),
(2947,1718,o),
(2859,1819,o),
(2671,1819,cs)
);
}
);
width = 3052;
}
);
unicode = 64259;
},
{
glyphname = ffl;
layers = (
{
layerId = "22B129CF-CF15-475D-9616-E64336B05864";
shapes = (
{
closed = 1;
nodes = (
(68,926,l),
(182,926,l),
(182,0,l),
(780,0,l),
(780,926,l),
(1161,926,l),
(1161,0,l),
(1759,0,l),
(1759,926,l),
(2042,926,l),
(2042,1243,l),
(1735,1243,l),
(1724,1278,o),
(1720,1309,o),
(1720,1335,cs),
(1720,1473,o),
(1837,1507,o),
(1958,1507,cs),
(2044,1507,o),
(2105,1489,o),
(2148,1475,c),
(2148,0,l),
(2714,0,l),
(2714,1712,l),
(2560,1774,o),
(2236,1837,o),
(1991,1837,cs),
(1513,1837,o),
(1161,1726,o),
(1161,1352,cs),
(1161,1243,l),
(780,1243,l),
(788,1346,o),
(838,1427,o),
(965,1427,cs),
(993,1427,o),
(1024,1423,o),
(1061,1413,c),
(1061,1712,l),
(948,1778,o),
(795,1815,o),
(643,1815,cs),
(391,1815,o),
(182,1683,o),
(182,1454,cs),
(182,1243,l),
(68,1243,l)
);
}
);
width = 2834;
}
);
unicode = 64260;
},
{
glyphname = fi;
layers = (
{
layerId = "22B129CF-CF15-475D-9616-E64336B05864";
shapes = (
{
closed = 1;
nodes = (
(68,926,l),
(182,926,l),
(182,0,l),
(780,0,l),
(780,926,l),
(1200,926,l),
(1200,0,l),
(1778,0,l),
(1778,1243,l),
(780,1243,l),
(791,1384,o),
(879,1468,o),
(993,1468,cs),
(1022,1468,o),
(1051,1464,o),
(1081,1454,c),
(1081,1753,l),
(963,1819,o),
(803,1855,o),
(643,1855,cs),
(391,1855,o),
(182,1724,o),
(182,1495,cs),
(182,1243,l),
(68,1243,l)
);
},
{
closed = 1;
nodes = (
(1321,1882,o),
(1202,1733,o),
(1202,1602,cs),
(1202,1479,o),
(1282,1366,o),
(1462,1366,cs),
(1673,1366,o),
(1778,1509,o),
(1778,1645,cs),
(1778,1765,o),
(1692,1882,o),
(1518,1882,cs)
);
}
);
width = 1882;
}
);
unicode = 64257;
},
{
glyphname = fl;
layers = (
{
background = {
shapes = (
{
closed = 1;
nodes = (
(68,926,l),
(182,926,l),
(182,0,l),
(780,0,l),
(780,926,l),
(1063,926,l),
(1063,1243,l),
(780,1243,l),
(788,1346,o),
(838,1427,o),
(965,1427,cs),
(993,1427,o),
(1024,1423,o),
(1061,1413,c),
(1063,1712,l),
(948,1778,o),
(795,1815,o),
(643,1815,cs),
(391,1815,o),
(182,1683,o),
(182,1454,cs),
(182,1243,l),
(68,1243,l)
);
}
);
};
layerId = "22B129CF-CF15-475D-9616-E64336B05864";
shapes = (
{
closed = 1;
nodes = (
(1776,1712,l),
(1622,1774,o),
(1257,1837,o),
(1012,1837,cs),
(535,1837,o),
(182,1726,o),
(182,1352,cs),
(182,1243,l),
(68,1243,l),
(68,926,l),
(182,926,l),
(182,0,l),
(780,0,l),
(780,926,l),
(1063,926,l),
(1063,1243,l),
(756,1243,l),
(745,1278,o),
(741,1309,o),
(741,1335,cs),
(741,1473,o),
(858,1507,o),
(979,1507,cs),
(1065,1507,o),
(1155,1489,o),
(1198,1475,c),
(1198,0,l),
(1776,0,l)
);
}
);
width = 1896;
}
);
unicode = 64258;
},
{
glyphname = ordfeminine;
layers = (
{
layerId = "22B129CF-CF15-475D-9616-E64336B05864";
shapes = (
{
closed = 1;
nodes = (
(88,764,o),
(287,580,o),
(522,580,cs),
(655,580,o),
(793,653,o),
(868,774,c),
(983,608,l),
(1245,608,l),
(1245,1604,l),
(983,1604,l),
(868,1448,l),
(791,1569,o),
(645,1640,o),
(506,1640,cs),
(279,1640,o),
(88,1444,o),
(88,1114,cs)
);
},
{
closed = 1;
nodes = (
(510,903,o),
(492,954,o),
(492,1006,cs),
(492,1163,o),
(696,1290,o),
(815,1290,c),
(815,1044,l),
(768,973,o),
(668,903,o),
(584,903,cs)
);
}
);
width = 1362;
}
);
unicode = 170;
},
{
glyphname = ordmasculine;
layers = (
{
layerId = "22B129CF-CF15-475D-9616-E64336B05864";
shapes = (
{
closed = 1;
nodes = (
(786,1325,o),
(813,1284,o),
(813,1229,cs),
(813,1106,o),
(694,913,o),
(612,913,cs),
(543,913,o),
(520,956,o),
(520,1014,cs),
(520,1137,o),
(639,1325,o),
(723,1325,cs)
);
},
{
closed = 1;
nodes = (
(950,580,o),
(1227,782,o),
(1227,1106,cs),
(1227,1438,o),
(971,1640,o),
(645,1640,cs),
(336,1640,o),
(76,1427,o),
(76,1110,cs),
(76,786,o),
(358,580,o),
(645,580,cs)
);
}
);
width = 1303;
}
);
unicode = 186;
},
{
glyphname = zero;
layers = (
{
guides = (
{
angle = 90;
pos = (897,0);
}
);
layerId = "22B129CF-CF15-475D-9616-E64336B05864";
shapes = (
{
closed = 1;
nodes = (
(1382,-37,o),
(1716,322,o),
(1716,807,cs),
(1716,1305,o),
(1397,1642,o),
(897,1642,cs),
(397,1642,o),
(78,1305,o),
(78,807,cs),
(78,322,o),
(412,-37,o),
(897,-37,cs)
);
},
{
closed = 1;
nodes = (
(1071,1157,o),
(1075,915,o),
(1075,776,cs),
(1075,641,o),
(1051,455,o),
(897,455,cs),
(733,455,o),
(719,662,o),
(719,776,cs),
(719,915,o),
(723,1157,o),
(897,1157,cs)
);
}
);
width = 1792;
}
);
unicode = 48;
},
{
glyphname = one;
layers = (
{
layerId = "22B129CF-CF15-475D-9616-E64336B05864";
shapes = (
{
closed = 1;
nodes = (
(375,0,l),
(1034,0,l),
(1034,1597,l),
(850,1597,l),
(20,1217,l),
(20,731,l),
(375,860,l)
);
}
);
width = 1155;
}
);
unicode = 49;
},
{
glyphname = two;
layers = (
{
layerId = "22B129CF-CF15-475D-9616-E64336B05864";
shapes = (
{
closed = 1;
nodes = (
(190,0,l),
(1626,0,l),
(1626,479,l),
(1118,479,l),
(1327,641,o),
(1616,817,o),
(1616,1118,cs),
(1616,1470,o),
(1294,1640,o),
(936,1640,cs),
(602,1640,o),
(236,1493,o),
(68,1214,c),
(303,877,l),
(467,1051,o),
(651,1149,o),
(776,1149,cs),
(868,1149,o),
(922,1092,o),
(922,1014,cs),
(922,947,o),
(882,869,o),
(799,799,cs),
(190,289,l)
);
}
);
width = 1726;
}
);
unicode = 50;
},
{
glyphname = three;
layers = (
{
layerId = "22B129CF-CF15-475D-9616-E64336B05864";
shapes = (
{
closed = 1;
nodes = (
(1761,858,o),
(1518,989,o),
(1212,1026,c),
(1726,1417,l),
(1726,1597,l),
(184,1597,l),
(184,1161,l),
(788,1161,l),
(704,1105,o),
(516,972,o),
(516,963,c),
(637,752,l),
(653,754,o),
(684,756,o),
(722,756,cs),
(854,756,o),
(1077,729,o),
(1077,567,cs),
(1077,489,o),
(1012,430,o),
(877,430,cs),
(674,430,o),
(469,500,o),
(317,600,c),
(80,213,l),
(344,6,o),
(702,-37,o),
(936,-37,cs),
(1311,-37,o),
(1761,72,o),
(1761,524,cs)
);
}
);
width = 1853;
}
);
unicode = 51;
},
{
glyphname = four;
layers = (
{
layerId = "22B129CF-CF15-475D-9616-E64336B05864";
shapes = (
{
closed = 1;
nodes = (
(47,215,l),
(961,215,l),
(961,0,l),
(1636,0,l),
(1636,215,l),
(1778,215,l),
(1778,702,l),
(1636,702,l),
(1636,1599,l),
(676,1599,l),
(47,686,l)
);
},
{
closed = 1;
nodes = (
(961,1139,l),
(961,686,l),
(670,686,l)
);
}
);
width = 1872;
}
);
unicode = 52;
},
{
glyphname = five;
layers = (
{
layerId = "22B129CF-CF15-475D-9616-E64336B05864";
shapes = (
{
closed = 1;
nodes = (
(68,172,l),
(319,-2,o),
(662,-37,o),
(883,-37,cs),
(1257,-37,o),
(1708,80,o),
(1708,532,cs),
(1708,922,o),
(1309,1047,o),
(967,1047,cs),
(901,1047,o),
(840,1042,o),
(782,1034,c),
(811,1196,l),
(1597,1196,l),
(1681,1599,l),
(356,1599,l),
(188,797,l),
(479,676,l),
(494,679,ls),
(575,695,o),
(672,713,o),
(776,713,cs),
(854,713,o),
(1024,711,o),
(1024,567,cs),
(1024,489,o),
(958,430,o),
(823,430,cs),
(637,430,o),
(444,483,o),
(305,559,c)
);
}
);
width = 1800;
}
);
unicode = 53;
},
{
glyphname = six;
layers = (
{
background = {
shapes = (
{
closed = 1;
nodes = (
(891,313,o),
(766,453,o),
(766,651,c),
(1036,651,l),
(1112,553,o),
(1139,455,o),
(1139,397,cs),
(1139,338,o),
(1083,313,o),
(1032,313,c)
);
}
);
};
layerId = "22B129CF-CF15-475D-9616-E64336B05864";
shapes = (
{
closed = 1;
nodes = (
(457,1642,o),
(74,1315,o),
(74,727,cs),
(74,238,o),
(504,-37,o),
(958,-37,cs),
(1290,-37,o),
(1710,72,o),
(1710,506,c),
(1710,889,o),
(1339,981,o),
(985,981,cs),
(897,981,o),
(805,967,o),
(735,948,c),
(733,965,o),
(733,979,o),
(733,991,cs),
(733,1141,o),
(838,1208,o),
(952,1208,cs),
(1026,1208,o),
(1104,1165,o),
(1145,1085,c),
(1145,1085,o),
(1554,1198,o),
(1647,1223,c),
(1597,1497,o),
(1237,1642,o),
(965,1642,cs)
);
},
{
closed = 1;
nodes = (
(891,313,o),
(766,453,o),
(766,651,c),
(1036,651,l),
(1112,553,o),
(1139,455,o),
(1139,397,cs),
(1139,338,o),
(1083,313,o),
(1032,313,cs)
);
}
);
width = 1786;
}
);
unicode = 54;
},
{
glyphname = seven;
layers = (
{
layerId = "22B129CF-CF15-475D-9616-E64336B05864";
shapes = (
{
closed = 1;
nodes = (
(168,0,l),
(1004,0,l),
(1726,1477,l),
(1726,1599,l),
(98,1599,l),
(98,1169,ls),
(98,1159,o),
(274,1137,o),
(305,1137,cs),
(439,1137,o),
(864,1151,o),
(958,1151,c),
(958,1108,l)
);
}
);
width = 1759;
}
);
unicode = 55;
},
{
glyphname = eight;
layers = (
{
guides = (
{
angle = 90;
pos = (885,0);
}
);
layerId = "22B129CF-CF15-475D-9616-E64336B05864";
shapes = (
{
closed = 1;
nodes = (
(1202,-37,o),
(1683,23,o),
(1683,436,cs),
(1683,655,o),
(1587,770,o),
(1380,862,c),
(1561,956,o),
(1624,1020,o),
(1624,1219,cs),
(1624,1585,o),
(1143,1642,o),
(885,1642,cs),
(627,1642,o),
(145,1585,o),
(145,1219,cs),
(145,1020,o),
(209,956,o),
(389,862,c),
(182,770,o),
(86,655,o),
(86,436,cs),
(86,23,o),
(567,-37,o),
(885,-37,cs)
);
},
{
closed = 1;
nodes = (
(967,721,o),
(1042,657,o),
(1042,559,cs),
(1042,444,o),
(963,430,o),
(885,430,cs),
(807,430,o),
(727,444,o),
(727,559,cs),
(727,657,o),
(803,721,o),
(885,721,cs)
);
},
{
closed = 1;
nodes = (
(836,979,o),
(750,1038,o),
(750,1118,cs),
(750,1219,o),
(821,1233,o),
(885,1233,cs),
(948,1233,o),
(1020,1219,o),
(1020,1118,cs),
(1020,1038,o),
(934,979,o),
(885,979,cs)
);
}
);
width = 1769;
}
);
unicode = 56;
},
{
glyphname = nine;
layers = (
{
background = {
shapes = (
{
closed = 1;
nodes = (
(901,1262,o),
(1014,1167,o),
(1030,956,c),
(877,956,ls),
(760,956,o),
(696,1055,o),
(696,1133,cs),
(696,1227,o),
(743,1262,o),
(782,1262,cs)
);
}
);
};
layerId = "22B129CF-CF15-475D-9616-E64336B05864";
shapes = (
{
closed = 1;
nodes = (
(918,1292,o),
(1042,1153,o),
(1042,954,c),
(772,954,l),
(696,1053,o),
(670,1151,o),
(670,1208,cs),
(670,1268,o),
(725,1292,o),
(776,1292,cs)
);
},
{
closed = 1;
nodes = (
(1327,-37,o),
(1710,291,o),
(1710,879,cs),
(1710,1368,o),
(1300,1642,o),
(866,1642,cs),
(518,1642,o),
(74,1534,o),
(74,1100,cs),
(74,717,o),
(444,625,o),
(799,625,cs),
(887,625,o),
(979,631,o),
(1049,649,c),
(1051,633,o),
(1051,627,o),
(1051,614,cs),
(1051,465,o),
(946,397,o),
(831,397,cs),
(758,397,o),
(680,440,o),
(639,520,c),
(639,520,o),
(229,408,o),
(137,383,c),
(186,109,o),
(547,-37,o),
(819,-37,cs)
);
}
);
width = 1784;
}
);
unicode = 57;
},
{
glyphname = fraction;
layers = (
{
layerId = "22B129CF-CF15-475D-9616-E64336B05864";
shapes = (
{
closed = 1;
nodes = (
(1165,1597,l),
(573,1597,l),
(20,0,l),
(285,0,l)
);
}
);
width = 1171;
}
);
unicode = 8260;
},
{
glyphname = onesuperior;
layers = (
{
layerId = "22B129CF-CF15-475D-9616-E64336B05864";
shapes = (
{
closed = 1;
nodes = (
(303,0,l),
(831,0,l),
(831,1278,l),
(684,1278,l),
(20,973,l),
(20,586,l),
(303,688,l)
);
}
);
width = 952;
}
);
unicode = 185;
},
{
glyphname = twosuperior;
layers = (
{
layerId = "22B129CF-CF15-475D-9616-E64336B05864";
shapes = (
{
closed = 1;
nodes = (
(166,0,l),
(1313,0,l),
(1313,383,l),
(907,383,l),
(1075,512,o),
(1305,653,o),
(1305,895,cs),
(1305,1176,o),
(1049,1313,o),
(762,1313,cs),
(494,1313,o),
(201,1194,o),
(68,971,c),
(256,700,l),
(387,840,o),
(535,920,o),
(633,920,cs),
(707,920,o),
(750,872,o),
(750,811,cs),
(750,758,o),
(718,695,o),
(651,639,cs),
(166,231,l)
);
}
);
width = 1413;
}
);
unicode = 178;
},
{
glyphname = threesuperior;
layers = (
{
layerId = "22B129CF-CF15-475D-9616-E64336B05864";
shapes = (
{
closed = 1;
nodes = (
(1425,686,o),
(1231,791,o),
(985,821,c),
(1397,1135,l),
(1397,1278,l),
(164,1278,l),
(164,930,l),
(647,930,l),
(453,795,l),
(444,791,o),
(428,772,o),
(428,770,c),
(526,602,l),
(537,602,l),
(550,603,o),
(571,605,o),
(593,605,cs),
(700,605,o),
(879,584,o),
(879,455,cs),
(879,391,o),
(825,344,o),
(717,344,cs),
(555,344,o),
(391,399,o),
(270,479,c),
(80,170,l),
(291,4,o),
(578,-29,o),
(764,-29,cs),
(1065,-29,o),
(1425,57,o),
(1425,420,cs)
);
}
);
width = 1518;
}
);
unicode = 179;
},
{
glyphname = foursuperior;
layers = (
{
layerId = "22B129CF-CF15-475D-9616-E64336B05864";
shapes = (
{
closed = 1;
nodes = (
(47,172,l),
(776,172,l),
(776,0,l),
(1317,0,l),
(1317,172,l),
(1432,172,l),
(1432,561,l),
(1317,561,l),
(1317,1280,l),
(549,1280,l),
(47,549,l)
);
},
{
closed = 1;
nodes = (
(776,911,l),
(776,549,l),
(545,549,l)
);
}
);
width = 1526;
}
);
unicode = 8308;
},
{
glyphname = period;
layers = (
{
layerId = "22B129CF-CF15-475D-9616-E64336B05864";
shapes = (
{
closed = 1;
nodes = (
(201,551,o),
(76,383,o),
(76,233,cs),
(76,92,o),
(160,-37,o),
(350,-37,cs),
(573,-37,o),
(684,125,o),
(684,279,cs),
(684,418,o),
(592,551,o),
(410,551,cs)
);
}
);
width = 760;
}
);
unicode = 46;
},
{
glyphname = comma;
layers = (
{
layerId = "22B129CF-CF15-475D-9616-E64336B05864";
shapes = (
{
closed = 1;
nodes = (
(123,-465,l),
(547,-465,o),
(731,-285,o),
(731,18,cs),
(731,422,l),
(123,422,l),
(123,0,l),
(303,0,l),
(303,0,o),
(303,-207,o),
(123,-207,c)
);
}
);
width = 809;
}
);
unicode = 44;
},
{
glyphname = colon;
layers = (
{
layerId = "22B129CF-CF15-475D-9616-E64336B05864";
shapes = (
{
closed = 1;
nodes = (
(195,1290,o),
(82,1137,o),
(82,1001,cs),
(82,872,o),
(156,756,o),
(332,756,cs),
(535,756,o),
(635,903,o),
(635,1042,cs),
(635,1167,o),
(549,1290,o),
(385,1290,cs)
);
},
{
closed = 1;
nodes = (
(195,535,o),
(82,381,o),
(82,246,cs),
(82,119,o),
(156,0,o),
(332,0,cs),
(535,0,o),
(635,147,o),
(635,287,cs),
(635,414,o),
(549,535,o),
(385,535,cs)
);
}
);
width = 717;
}
);
unicode = 58;
},
{
glyphname = semicolon;
layers = (
{
layerId = "22B129CF-CF15-475D-9616-E64336B05864";
shapes = (
{
closed = 1;
nodes = (
(94,-336,l),
(518,-336,o),
(702,-156,o),
(702,147,cs),
(702,551,l),
(94,551,l),
(94,129,l),
(274,129,l),
(274,129,o),
(274,-78,o),
(94,-78,c)
);
},
{
closed = 1;
nodes = (
(242,1290,o),
(129,1137,o),
(129,1001,cs),
(129,872,o),
(203,756,o),
(379,756,cs),
(582,756,o),
(682,903,o),
(682,1042,cs),
(682,1167,o),
(596,1290,o),
(432,1290,cs)
);
}
);
width = 778;
}
);
unicode = 59;
},
{
glyphname = exclam;
layers = (
{
layerId = "22B129CF-CF15-475D-9616-E64336B05864";
shapes = (
{
closed = 1;
nodes = (
(678,1599,l),
(100,1599,l),
(203,639,l),
(575,639,l)
);
},
{
closed = 1;
nodes = (
(221,479,o),
(102,330,o),
(102,199,cs),
(102,76,o),
(182,-37,o),
(362,-37,cs),
(573,-37,o),
(678,106,o),
(678,242,cs),
(678,362,o),
(592,479,o),
(418,479,cs)
);
}
);
width = 770;
}
);
unicode = 33;
},
{
glyphname = exclamdown;
layers = (
{
layerId = "22B129CF-CF15-475D-9616-E64336B05864";
shapes = (
{
closed = 1;
nodes = (
(594,1083,o),
(680,1200,o),
(680,1321,cs),
(680,1456,o),
(575,1599,o),
(365,1599,cs),
(184,1599,o),
(104,1487,o),
(104,1364,cs),
(104,1233,o),
(223,1083,o),
(420,1083,cs)
);
},
{
closed = 1;
nodes = (
(578,924,l),
(205,924,l),
(102,-37,l),
(680,-37,l)
);
}
);
width = 774;
}
);
unicode = 161;
},
{
glyphname = question;
layers = (
{
layerId = "22B129CF-CF15-475D-9616-E64336B05864";
shapes = (
{
closed = 1;
nodes = (
(676,553,l),
(778,879,o),
(1120,784,o),
(1120,1214,cs),
(1120,1540,o),
(791,1638,o),
(473,1638,cs),
(332,1638,o),
(190,1616,o),
(82,1585,c),
(82,1155,l),
(125,1174,o),
(279,1227,o),
(401,1227,cs),
(489,1227,o),
(561,1200,o),
(561,1110,cs),
(561,999,o),
(281,993,o),
(281,725,cs),
(281,678,o),
(289,621,o),
(311,553,c)
);
},
{
closed = 1;
nodes = (
(330,479,o),
(211,330,o),
(211,199,cs),
(211,76,o),
(291,-37,o),
(471,-37,cs),
(682,-37,o),
(786,106,o),
(786,242,cs),
(786,362,o),
(700,479,o),
(526,479,cs)
);
}
);
width = 1155;
}
);
unicode = 63;
},
{
glyphname = periodcentered;
layers = (
{
layerId = "22B129CF-CF15-475D-9616-E64336B05864";
shapes = (
{
closed = 1;
nodes = (
(201,1241,o),
(76,1073,o),
(76,924,cs),
(76,782,o),
(160,653,o),
(350,653,cs),
(573,653,o),
(684,815,o),
(684,969,cs),
(684,1108,o),
(592,1241,o),
(410,1241,cs)
);
}
);
width = 760;
}
);
unicode = 183;
},
{
glyphname = bullet;
layers = (
{
layerId = "22B129CF-CF15-475D-9616-E64336B05864";
shapes = (
{
closed = 1;
nodes = (
(152,715,o),
(-6,506,o),
(-6,315,cs),
(-6,133,o),
(102,-37,o),
(350,-37,cs),
(631,-37,o),
(766,166,o),
(766,360,cs),
(766,541,o),
(649,715,o),
(410,715,cs)
);
}
);
width = 760;
}
);
unicode = 8226;
},
{
glyphname = asterisk;
layers = (
{
background = {
shapes = (
{
closed = 1;
nodes = (
(74,596,o),
(147,516,o),
(256,516,cs),
(350,516,o),
(418,580,o),
(475,647,c),
(473,647,l),
(494,670,o),
(719,903,o),
(719,930,cs),
(719,983,o),
(678,989,o),
(637,989,cs),
(614,989,o),
(481,944,o),
(438,936,c),
(440,936,l),
(309,911,o),
(74,885,o),
(74,702,cs)
);
},
{
closed = 1;
nodes = (
(74,1053,o),
(348,1065,o),
(500,1026,cs),
(549,1014,o),
(598,995,o),
(645,979,c),
(676,985,o),
(711,1016,o),
(711,1049,cs),
(711,1090,o),
(666,1104,o),
(641,1130,cs),
(643,1128,ls),
(524,1243,o),
(430,1458,o),
(238,1458,cs),
(139,1458,o),
(74,1368,o),
(74,1276,cs)
);
},
{
closed = 1;
nodes = (
(795,1012,o),
(840,971,o),
(870,971,cs),
(877,971,o),
(903,983,o),
(909,985,c),
(907,985,l),
(946,997,l),
(944,997,l),
(989,1008,o),
(1470,1059,o),
(1430,1245,c),
(1436,1257,o),
(1438,1270,o),
(1438,1282,cs),
(1438,1354,o),
(1382,1417,o),
(1319,1444,c),
(1260,1444,ls),
(1174,1444,o),
(1114,1403,o),
(1059,1339,c),
(1061,1337,l),
(1061,1333,o),
(1057,1337,o),
(1059,1337,c),
(999,1264,o),
(932,1174,o),
(856,1116,cs),
(858,1118,l),
(838,1102,l),
(838,1104,l),
(817,1087,o),
(795,1071,o),
(795,1042,cs)
);
},
{
closed = 1;
nodes = (
(1354,510,o),
(1432,596,o),
(1432,700,cs),
(1432,954,o),
(1010,895,o),
(872,989,c),
(821,989,o),
(795,956,o),
(782,911,c),
(811,883,o),
(844,858,o),
(870,829,cs),
(1137,551,ls),
(1163,522,o),
(1208,510,o),
(1247,510,cs)
);
},
{
closed = 1;
nodes = (
(700,1073,l),
(711,1051,o),
(725,1040,o),
(750,1040,cs),
(834,1040,o),
(936,1470,o),
(936,1552,cs),
(936,1669,o),
(866,1743,o),
(748,1743,cs),
(643,1743,o),
(578,1645,o),
(578,1548,cs),
(578,1520,o),
(688,1092,o),
(700,1071,c)
);
},
{
closed = 1;
nodes = (
(575,328,o),
(623,231,o),
(748,231,cs),
(872,231,o),
(930,311,o),
(930,430,cs),
(930,502,o),
(811,827,o),
(774,897,cs),
(770,903,o),
(760,926,o),
(752,926,cs),
(688,926,o),
(575,506,o),
(575,440,cs)
);
}
);
};
layerId = "22B129CF-CF15-475D-9616-E64336B05864";
shapes = (
{
closed = 1;
nodes = (
(877,1296,o),
(938,1446,o),
(938,1575,cs),
(938,1679,o),
(874,1755,o),
(760,1755,cs),
(645,1755,o),
(584,1679,o),
(584,1575,cs),
(584,1448,o),
(641,1300,o),
(670,1176,c),
(672,1161,o),
(674,1149,o),
(678,1137,c),
(649,1163,ls),
(526,1273,o),
(395,1466,o),
(246,1466,cs),
(172,1466,o),
(74,1393,o),
(74,1280,cs),
(74,1077,o),
(457,1047,o),
(616,993,c),
(457,940,o),
(74,911,o),
(74,707,cs),
(74,594,o),
(172,522,o),
(246,522,cs),
(395,522,o),
(524,719,o),
(649,825,c),
(684,858,l),
(657,748,o),
(584,555,o),
(584,416,cs),
(584,311,o),
(645,233,o),
(760,233,cs),
(874,233,o),
(938,311,o),
(938,416,cs),
(938,541,o),
(874,686,o),
(850,813,c),
(840,854,l),
(872,825,ls),
(993,719,o),
(1135,522,o),
(1276,522,cs),
(1352,522,o),
(1448,602,o),
(1448,713,cs),
(1448,905,o),
(1069,954,o),
(913,993,c),
(1081,1057,o),
(1448,1071,o),
(1448,1276,cs),
(1448,1386,o),
(1352,1464,o),
(1276,1464,cs),
(1140,1464,o),
(987,1274,o),
(872,1163,cs),
(836,1128,l),
(840,1145,o),
(844,1161,o),
(850,1176,c)
);
}
);
width = 1522;
}
);
unicode = 42;
},
{
glyphname = numbersign;
layers = (
{
layerId = "22B129CF-CF15-475D-9616-E64336B05864";
shapes = (
{
closed = 1;
nodes = (
(170,942,l),
(330,942,l),
(293,680,l),
(117,680,l),
(76,381,l),
(252,381,l),
(199,0,l),
(688,0,l),
(776,381,l),
(1018,381,l),
(936,0,l),
(1364,0,l),
(1505,381,l),
(1759,381,l),
(1841,680,l),
(1616,680,l),
(1714,942,l),
(1915,942,l),
(1997,1241,l),
(1825,1241,l),
(1958,1597,l),
(1284,1597,l),
(1206,1241,l),
(975,1241,l),
(1057,1597,l),
(424,1597,l),
(373,1241,l),
(211,1241,l)
);
},
{
closed = 1;
nodes = (
(905,942,l),
(1141,942,l),
(1083,680,l),
(844,680,l)
);
}
);
width = 2056;
}
);
unicode = 35;
},
{
glyphname = slash;
layers = (
{
layerId = "22B129CF-CF15-475D-9616-E64336B05864";
shapes = (
{
closed = 1;
nodes = (
(1014,1597,l),
(340,1597,l),
(53,0,l),
(584,0,l)
);
}
);
width = 1042;
}
);
unicode = 47;
},
{
glyphname = backslash;
layers = (
{
layerId = "22B129CF-CF15-475D-9616-E64336B05864";
shapes = (
{
closed = 1;
nodes = (
(1030,0,l),
(356,0,l),
(49,1597,l),
(580,1597,l)
);
}
);
width = 1057;
}
);
unicode = 92;
},
{
glyphname = hyphen;
layers = (
{
layerId = "22B129CF-CF15-475D-9616-E64336B05864";
shapes = (
{
closed = 1;
nodes = (
(123,479,l),
(887,479,l),
(887,911,l),
(123,911,l)
);
}
);
width = 1008;
}
);
unicode = 45;
},
{
glyphname = uni00AD;
layers = (
{
layerId = "22B129CF-CF15-475D-9616-E64336B05864";
shapes = (
{
closed = 1;
nodes = (
(61,614,l),
(975,614,l),
(975,911,l),
(61,911,l)
);
}
);
width = 1036;
}
);
unicode = 173;
},
{
glyphname = endash;
layers = (
{
layerId = "22B129CF-CF15-475D-9616-E64336B05864";
shapes = (
{
closed = 1;
nodes = (
(123,614,l),
(1036,614,l),
(1036,911,l),
(123,911,l)
);
}
);
width = 1157;
}
);
unicode = 8211;
},
{
glyphname = emdash;
layers = (
{
layerId = "22B129CF-CF15-475D-9616-E64336B05864";
shapes = (
{
closed = 1;
nodes = (
(123,614,l),
(1036,614,l),
(1036,911,l),
(123,911,l)
);
}
);
width = 1157;
}
);
unicode = 8212;
},
{
glyphname = underscore;
layers = (
{
layerId = "22B129CF-CF15-475D-9616-E64336B05864";
shapes = (
{
closed = 1;
nodes = (
(123,-297,l),
(1036,-297,l),
(1036,0,l),
(123,0,l)
);
}
);
width = 1157;
}
);
unicode = 95;
},
{
glyphname = parenleft;
layers = (
{
layerId = "22B129CF-CF15-475D-9616-E64336B05864";
shapes = (
{
closed = 1;
nodes = (
(897,1673,l),
(391,1667,o),
(41,1305,o),
(41,766,cs),
(41,221,o),
(453,-66,o),
(901,-66,c),
(901,303,l),
(719,307,o),
(600,510,o),
(600,737,cs),
(600,936,o),
(688,1174,o),
(897,1333,c)
);
}
);
width = 1022;
}
);
unicode = 40;
},
{
glyphname = parenright;
layers = (
{
layerId = "22B129CF-CF15-475D-9616-E64336B05864";
shapes = (
{
closed = 1;
nodes = (
(127,1333,l),
(336,1174,o),
(424,936,o),
(424,737,cs),
(424,510,o),
(305,307,o),
(123,303,c),
(123,-66,l),
(571,-66,o),
(983,221,o),
(983,766,cs),
(983,1305,o),
(633,1667,o),
(127,1673,c)
);
}
);
width = 1024;
}
);
unicode = 41;
},
{
glyphname = braceleft;
layers = (
{
layerId = "22B129CF-CF15-475D-9616-E64336B05864";
shapes = (
{
closed = 1;
nodes = (
(190,90,o),
(403,-143,o),
(924,-143,c),
(924,238,l),
(752,238,o),
(750,379,o),
(750,460,cs),
(750,598,o),
(655,745,o),
(510,784,c),
(659,825,o),
(750,975,o),
(750,1114,cs),
(750,1196,o),
(752,1333,o),
(924,1333,c),
(924,1714,l),
(403,1714,o),
(190,1481,o),
(190,1139,cs),
(190,1034,o),
(129,954,o),
(33,950,c),
(33,621,l),
(129,616,o),
(190,537,o),
(190,432,cs)
);
}
);
width = 1044;
}
);
unicode = 123;
},
{
glyphname = braceright;
layers = (
{
layerId = "22B129CF-CF15-475D-9616-E64336B05864";
shapes = (
{
closed = 1;
nodes = (
(856,537,o),
(918,616,o),
(1014,621,c),
(1014,950,l),
(918,954,o),
(856,1034,o),
(856,1139,cs),
(856,1481,o),
(643,1714,o),
(123,1714,c),
(123,1333,l),
(295,1333,o),
(297,1196,o),
(297,1114,cs),
(297,975,o),
(387,825,o),
(537,784,c),
(387,744,o),
(297,594,o),
(297,459,cs),
(297,378,o),
(295,238,o),
(123,238,c),
(123,-143,l),
(643,-143,o),
(856,90,o),
(856,432,cs)
);
}
);
width = 1044;
}
);
unicode = 125;
},
{
glyphname = bracketleft;
layers = (
{
layerId = "22B129CF-CF15-475D-9616-E64336B05864";
shapes = (
{
closed = 1;
nodes = (
(1067,-37,l),
(1067,236,l),
(745,236,l),
(745,1354,l),
(1067,1354,l),
(1067,1640,l),
(123,1640,l),
(123,-37,l)
);
}
);
width = 1188;
}
);
unicode = 91;
},
{
glyphname = bracketright;
layers = (
{
layerId = "22B129CF-CF15-475D-9616-E64336B05864";
shapes = (
{
closed = 1;
nodes = (
(1067,-37,l),
(1067,1640,l),
(123,1640,l),
(123,1354,l),
(444,1354,l),
(444,236,l),
(123,236,l),
(123,-37,l)
);
}
);
width = 1188;
}
);
unicode = 93;
},
{
glyphname = quotesinglbase;
layers = (
{
layerId = "22B129CF-CF15-475D-9616-E64336B05864";
shapes = (
{
closed = 1;
nodes = (
(123,-465,l),
(547,-465,o),
(731,-285,o),
(731,18,cs),
(731,422,l),
(123,422,l),
(123,0,l),
(303,0,l),
(303,0,o),
(303,-207,o),
(123,-207,c)
);
}
);
width = 809;
}
);
unicode = 8218;
},
{
glyphname = quotedblbase;
layers = (
{
layerId = "22B129CF-CF15-475D-9616-E64336B05864";
shapes = (
{
closed = 1;
nodes = (
(874,-465,l),
(1298,-465,o),
(1483,-285,o),
(1483,18,cs),
(1483,422,l),
(874,422,l),
(874,0,l),
(1055,0,l),
(1055,0,o),
(1055,-207,o),
(874,-207,c)
);
},
{
closed = 1;
nodes = (
(123,-465,l),
(547,-465,o),
(731,-285,o),
(731,18,cs),
(731,422,l),
(123,422,l),
(123,0,l),
(303,0,l),
(303,0,o),
(303,-207,o),
(123,-207,c)
);
}
);
width = 1585;
}
);
unicode = 8222;
},
{
glyphname = quotedblleft;
layers = (
{
layerId = "22B129CF-CF15-475D-9616-E64336B05864";
shapes = (
{
closed = 1;
nodes = (
(713,1599,l),
(289,1599,o),
(104,1419,o),
(104,1116,cs),
(104,713,l),
(713,713,l),
(713,1135,l),
(532,1135,l),
(532,1135,o),
(532,1341,o),
(713,1341,c)
);
},
{
closed = 1;
nodes = (
(1464,1599,l),
(1040,1599,o),
(856,1419,o),
(856,1116,cs),
(856,713,l),
(1464,713,l),
(1464,1135,l),
(1284,1135,l),
(1284,1135,o),
(1284,1341,o),
(1464,1341,c)
);
}
);
width = 1587;
}
);
unicode = 8220;
},
{
glyphname = quotedblright;
layers = (
{
layerId = "22B129CF-CF15-475D-9616-E64336B05864";
shapes = (
{
closed = 1;
nodes = (
(874,713,l),
(1298,713,o),
(1483,893,o),
(1483,1196,cs),
(1483,1599,l),
(874,1599,l),
(874,1178,l),
(1055,1178,l),
(1055,1178,o),
(1055,971,o),
(874,971,c)
);
},
{
closed = 1;
nodes = (
(123,713,l),
(547,713,o),
(731,893,o),
(731,1196,cs),
(731,1599,l),
(123,1599,l),
(123,1178,l),
(303,1178,l),
(303,1178,o),
(303,971,o),
(123,971,c)
);
}
);
width = 1585;
}
);
unicode = 8221;
},
{
glyphname = quoteleft;
layers = (
{
layerId = "22B129CF-CF15-475D-9616-E64336B05864";
shapes = (
{
closed = 1;
nodes = (
(690,1599,l),
(266,1599,o),
(82,1419,o),
(82,1116,cs),
(82,713,l),
(690,713,l),
(690,1135,l),
(510,1135,l),
(510,1135,o),
(510,1341,o),
(690,1341,c)
);
}
);
width = 811;
}
);
unicode = 8216;
},
{
glyphname = quoteright;
layers = (
{
layerId = "22B129CF-CF15-475D-9616-E64336B05864";
shapes = (
{
closed = 1;
nodes = (
(123,713,l),
(547,713,o),
(731,893,o),
(731,1196,cs),
(731,1599,l),
(123,1599,l),
(123,1178,l),
(303,1178,l),
(303,1178,o),
(303,971,o),
(123,971,c)
);
}
);
width = 809;
}
);
unicode = 8217;
},
{
glyphname = guillemotleft;
layers = (
{
layerId = "22B129CF-CF15-475D-9616-E64336B05864";
shapes = (
{
closed = 1;
nodes = (
(1485,1446,l),
(797,870,ls),
(774,851,o),
(758,824,o),
(758,791,cs),
(758,756,o),
(774,729,o),
(797,711,cs),
(1485,160,l),
(1485,616,l),
(1249,797,l),
(1485,963,l)
);
},
{
closed = 1;
nodes = (
(754,1446,l),
(66,870,ls),
(43,851,o),
(27,824,o),
(27,791,cs),
(27,756,o),
(43,729,o),
(66,711,cs),
(754,160,l),
(754,616,l),
(518,797,l),
(754,963,l)
);
}
);
width = 1606;
}
);
unicode = 171;
},
{
glyphname = guillemotright;
layers = (
{
layerId = "22B129CF-CF15-475D-9616-E64336B05864";
shapes = (
{
closed = 1;
nodes = (
(123,160,l),
(811,735,ls),
(834,754,o),
(850,782,o),
(850,815,cs),
(850,850,o),
(834,877,o),
(811,895,cs),
(123,1446,l),
(123,989,l),
(358,809,l),
(123,643,l)
);
},
{
closed = 1;
nodes = (
(854,160,l),
(1542,735,ls),
(1565,754,o),
(1581,782,o),
(1581,815,cs),
(1581,850,o),
(1565,877,o),
(1542,895,cs),
(854,1446,l),
(854,989,l),
(1090,809,l),
(854,643,l)
);
}
);
width = 1608;
}
);
unicode = 187;
},
{
glyphname = guilsinglleft;
layers = (
{
layerId = "22B129CF-CF15-475D-9616-E64336B05864";
shapes = (
{
closed = 1;
nodes = (
(891,1466,l),
(39,870,l),
(14,856,o),
(0,823,o),
(0,791,cs),
(0,756,o),
(12,725,o),
(39,711,c),
(891,139,l),
(891,637,l),
(668,766,l),
(891,901,l)
);
}
);
width = 1010;
}
);
unicode = 8249;
},
{
glyphname = guilsinglright;
layers = (
{
layerId = "22B129CF-CF15-475D-9616-E64336B05864";
shapes = (
{
closed = 1;
nodes = (
(123,139,l),
(975,735,ls),
(998,751,o),
(1014,782,o),
(1014,815,cs),
(1014,850,o),
(1001,881,o),
(975,895,c),
(123,1466,l),
(123,969,l),
(346,840,l),
(123,705,l)
);
}
);
width = 1014;
}
);
unicode = 8250;
},
{
glyphname = quotedbl;
layers = (
{
layerId = "22B129CF-CF15-475D-9616-E64336B05864";
shapes = (
{
closed = 1;
nodes = (
(1214,1597,l),
(698,1597,l),
(801,844,l),
(1133,844,l)
);
},
{
closed = 1;
nodes = (
(614,1597,l),
(98,1597,l),
(201,844,l),
(532,844,l)
);
}
);
width = 1317;
}
);
unicode = 34;
},
{
glyphname = quotesingle;
layers = (
{
layerId = "22B129CF-CF15-475D-9616-E64336B05864";
shapes = (
{
closed = 1;
nodes = (
(590,1597,l),
(74,1597,l),
(176,844,l),
(508,844,l)
);
}
);
width = 672;
}
);
unicode = 39;
},
{
glyphname = at;
layers = (
{
guides = (
{
angle = 90;
pos = (1247,0);
}
);
layerId = "22B129CF-CF15-475D-9616-E64336B05864";
shapes = (
{
closed = 1;
nodes = (
(2308,1425,o),
(1749,1774,o),
(1192,1774,cs),
(633,1774,o),
(76,1425,o),
(76,729,cs),
(76,76,o),
(633,-246,o),
(1192,-246,cs),
(1389,-246,o),
(1583,-195,o),
(1755,-90,c),
(1667,117,l),
(1538,43,o),
(1380,0,o),
(1192,0,cs),
(643,0,o),
(373,360,o),
(373,735,cs),
(373,1133,o),
(649,1532,o),
(1192,1532,cs),
(1761,1532,o),
(2015,1137,o),
(2015,700,cs),
(2015,537,o),
(1958,469,o),
(1894,469,cs),
(1817,469,o),
(1726,518,o),
(1726,594,cs),
(1726,1233,l),
(1464,1233,l),
(1350,1077,l),
(1272,1198,o),
(1126,1270,o),
(985,1270,cs),
(760,1270,o),
(567,1073,o),
(567,743,cs),
(567,393,o),
(768,209,o),
(1001,209,cs),
(1153,209,o),
(1307,291,o),
(1391,424,c),
(1518,289,o),
(1675,225,o),
(1823,225,cs),
(2079,225,o),
(2308,416,o),
(2308,729,cs)
);
},
{
closed = 1;
nodes = (
(991,532,o),
(973,584,o),
(973,635,cs),
(973,793,o),
(1178,920,o),
(1296,920,c),
(1296,674,l),
(1247,602,o),
(1149,532,o),
(1065,532,cs)
);
}
);
width = 2370;
}
);
unicode = 64;
},
{
glyphname = ampersand;
layers = (
{
layerId = "22B129CF-CF15-475D-9616-E64336B05864";
shapes = (
{
closed = 1;
nodes = (
(1202,1192,o),
(1067,1143,o),
(1040,1126,c),
(985,1190,ls),
(962,1216,o),
(952,1242,o),
(952,1260,cs),
(952,1317,o),
(1018,1356,o),
(1075,1356,cs),
(1151,1356,o),
(1202,1327,o),
(1202,1266,cs)
);
},
{
closed = 1;
nodes = (
(66,129,o),
(426,-37,o),
(760,-37,cs),
(958,-37,o),
(1102,-4,o),
(1257,102,c),
(1350,0,l),
(2187,0,l),
(2187,139,l),
(1978,180,o),
(1872,254,o),
(1729,389,c),
(1907,485,o),
(2189,825,o),
(2189,1010,c),
(1718,1137,l),
(1645,977,o),
(1499,834,o),
(1370,739,c),
(1223,909,l),
(1257,942,o),
(1567,1075,o),
(1567,1294,cs),
(1567,1552,o),
(1251,1640,o),
(1040,1640,cs),
(774,1640,o),
(487,1524,o),
(487,1276,cs),
(487,1212,o),
(508,1141,o),
(551,1059,c),
(483,1026,o),
(66,930,o),
(66,502,cs)
);
},
{
closed = 1;
nodes = (
(977,481,l),
(930,449,o),
(829,432,o),
(797,432,cs),
(709,432,o),
(659,498,o),
(659,569,cs),
(659,631,o),
(694,696,o),
(772,733,c)
);
}
);
width = 2241;
}
);
unicode = 38;
},
{
glyphname = paragraph;
layers = (
{
layerId = "22B129CF-CF15-475D-9616-E64336B05864";
shapes = (
{
closed = 1;
nodes = (
(1628,1597,l),
(539,1597,ls),
(213,1597,o),
(39,1362,o),
(39,1116,cs),
(39,727,o),
(317,449,o),
(707,449,cs),
(754,449,o),
(803,453,o),
(864,453,c),
(864,0,l),
(1192,0,l),
(1192,1292,l),
(1307,1292,l),
(1307,0,l),
(1628,0,l)
);
}
);
width = 1751;
}
);
unicode = 182;
},
{
glyphname = section;
layers = (
{
layerId = "22B129CF-CF15-475D-9616-E64336B05864";
shapes = (
{
closed = 1;
nodes = (
(201,-14,l),
(283,-55,o),
(420,-82,o),
(563,-82,cs),
(817,-82,o),
(1092,4,o),
(1092,254,cs),
(1092,285,o),
(1087,317,o),
(1079,354,c),
(1231,369,o),
(1372,563,o),
(1372,764,cs),
(1372,1257,o),
(856,1151,o),
(856,1247,cs),
(856,1286,o),
(897,1298,o),
(965,1298,cs),
(1067,1298,o),
(1219,1278,o),
(1219,1278,c),
(1219,1634,l),
(1122,1655,o),
(1010,1669,o),
(899,1669,cs),
(627,1669,o),
(362,1581,o),
(362,1280,cs),
(362,1264,o),
(362,1248,o),
(364,1233,c),
(228,1218,o),
(57,1067,o),
(57,854,cs),
(57,381,o),
(582,469,o),
(582,344,cs),
(582,297,o),
(535,291,o),
(479,291,cs),
(360,291,o),
(201,334,o),
(201,334,c)
);
},
{
closed = 1;
nodes = (
(522,793,o),
(469,807,o),
(469,854,cs),
(469,897,o),
(504,920,o),
(563,920,cs),
(662,920,o),
(870,844,o),
(879,836,c),
(944,815,o),
(973,774,o),
(973,737,cs),
(973,696,o),
(942,686,o),
(901,686,cs),
(776,686,o),
(563,774,o),
(563,774,c)
);
}
);
width = 1434;
}
);
unicode = 167;
},
{
glyphname = copyright;
layers = (
{
layerId = "22B129CF-CF15-475D-9616-E64336B05864";
shapes = (
{
closed = 1;
nodes = (
(1528,766,l),
(1358,641,o),
(1300,633,o),
(1257,633,cs),
(1186,633,o),
(1149,688,o),
(1149,786,cs),
(1149,928,o),
(1268,1042,o),
(1411,1042,cs),
(1440,1042,o),
(1475,1038,o),
(1507,1026,c),
(1507,1405,l),
(1430,1434,o),
(1321,1440,o),
(1264,1440,cs),
(866,1440,o),
(590,1182,o),
(590,797,cs),
(590,432,o),
(895,233,o),
(1206,233,cs),
(1323,233,o),
(1430,254,o),
(1528,293,c)
);
},
{
closed = 1;
nodes = (
(1780,1710,o),
(2073,1298,o),
(2073,805,cs),
(2073,311,o),
(1780,-98,o),
(1192,-98,cs),
(606,-98,o),
(311,311,o),
(311,805,cs),
(311,1298,o),
(606,1710,o),
(1192,1710,cs)
);
},
{
closed = 1;
nodes = (
(76,80,o),
(633,-283,o),
(1192,-283,cs),
(1749,-283,o),
(2308,80,o),
(2308,805,cs),
(2308,1530,o),
(1749,1892,o),
(1192,1892,cs),
(633,1892,o),
(76,1530,o),
(76,805,cs)
);
}
);
width = 2384;
}
);
unicode = 169;
},
{
glyphname = registered;
layers = (
{
layerId = "22B129CF-CF15-475D-9616-E64336B05864";
shapes = (
{
closed = 1;
nodes = (
(1288,281,l),
(1845,281,l),
(1540,680,l),
(1669,750,o),
(1761,858,o),
(1761,1008,cs),
(1761,1210,o),
(1573,1405,o),
(1247,1405,cs),
(633,1405,l),
(633,281,l),
(1092,281,l),
(1092,575,l),
(1110,575,l)
);
},
{
closed = 1;
nodes = (
(1303,1110,o),
(1327,1065,o),
(1327,1014,cs),
(1327,919,o),
(1249,891,o),
(1178,844,c),
(1090,795,l),
(1090,1047,l),
(1090,1047,o),
(1194,1110,o),
(1253,1110,cs)
);
},
{
closed = 1;
nodes = (
(1780,1710,o),
(2073,1298,o),
(2073,805,cs),
(2073,311,o),
(1780,-98,o),
(1192,-98,cs),
(606,-98,o),
(311,311,o),
(311,805,cs),
(311,1298,o),
(606,1710,o),
(1192,1710,cs)
);
},
{
closed = 1;
nodes = (
(76,80,o),
(633,-283,o),
(1192,-283,cs),
(1749,-283,o),
(2308,80,o),
(2308,805,cs),
(2308,1530,o),
(1749,1892,o),
(1192,1892,cs),
(633,1892,o),
(76,1530,o),
(76,805,cs)
);
}
);
width = 2384;
}
);
unicode = 174;
},
{
glyphname = trademark;
layers = (
{
layerId = "22B129CF-CF15-475D-9616-E64336B05864";
shapes = (
{
closed = 1;
nodes = (
(49,1235,l),
(360,1235,l),
(360,469,l),
(803,469,l),
(803,1235,l),
(1116,1235,l),
(1116,1599,l),
(49,1599,l)
);
},
{
closed = 1;
nodes = (
(1212,469,l),
(1602,469,l),
(1602,827,l),
(1882,520,l),
(2173,834,l),
(2173,469,l),
(2638,469,l),
(2638,1599,l),
(2482,1599,l),
(1919,1087,l),
(1370,1599,l),
(1212,1599,l)
);
}
);
width = 2699;
}
);
unicode = 8482;
},
{
glyphname = degree;
layers = (
{
guides = (
{
pos = (0,1096);
},
{
angle = 90;
pos = (444,0);
}
);
layerId = "22B129CF-CF15-475D-9616-E64336B05864";
shapes = (
{
closed = 1;
nodes = (
(498,1460,o),
(547,1391,o),
(547,1323,cs),
(547,1255,o),
(500,1188,o),
(406,1188,cs),
(309,1188,o),
(260,1257,o),
(260,1327,cs),
(260,1393,o),
(307,1460,o),
(401,1460,cs)
);
},
{
closed = 1;
nodes = (
(78,1112,o),
(240,1006,o),
(403,1006,cs),
(565,1006,o),
(727,1112,o),
(727,1325,cs),
(727,1534,o),
(563,1640,o),
(401,1640,cs),
(240,1640,o),
(78,1536,o),
(78,1325,cs)
);
}
);
width = 803;
}
);
unicode = 176;
},
{
glyphname = bar;
layers = (
{
layerId = "22B129CF-CF15-475D-9616-E64336B05864";
shapes = (
{
closed = 1;
nodes = (
(725,1802,l),
(96,1802,l),
(162,-205,l),
(647,-205,l)
);
}
);
width = 815;
}
);
unicode = 124;
},
{
glyphname = brokenbar;
layers = (
{
layerId = "22B129CF-CF15-475D-9616-E64336B05864";
shapes = (
{
closed = 1;
nodes = (
(127,918,l),
(156,1802,l),
(641,1802,l),
(676,918,l)
);
},
{
closed = 1;
nodes = (
(672,680,l),
(707,-205,l),
(98,-205,l),
(127,680,l)
);
}
);
width = 801;
}
);
unicode = 166;
},
{
glyphname = Euro;
layers = (
{
layerId = "22B129CF-CF15-475D-9616-E64336B05864";
shapes = (
{
closed = 1;
nodes = (
(33,901,l),
(211,901,l),
(205,860,o),
(203,819,o),
(201,776,c),
(33,776,l),
(33,643,l),
(207,643,l),
(258,178,o),
(668,-68,o),
(1092,-68,cs),
(1255,-68,o),
(1411,-37,o),
(1552,18,c),
(1552,535,l),
(1446,479,o),
(1343,449,o),
(1253,449,cs),
(1120,449,o),
(1014,512,o),
(969,643,c),
(1419,643,l),
(1419,776,l),
(944,776,l),
(944,809,ls),
(944,840,o),
(948,870,o),
(954,901,c),
(1419,901,l),
(1419,1034,l),
(1014,1034,l),
(1094,1149,o),
(1233,1223,o),
(1382,1223,cs),
(1427,1223,o),
(1475,1214,o),
(1522,1200,c),
(1522,1624,l),
(1415,1663,o),
(1253,1673,o),
(1174,1673,cs),
(705,1673,o),
(354,1425,o),
(240,1034,c),
(33,1034,l)
);
}
);
width = 1663;
}
);
unicode = 8364;
},
{
glyphname = cent;
layers = (
{
layerId = "22B129CF-CF15-475D-9616-E64336B05864";
shapes = (
{
closed = 1;
nodes = (
(623,-205,l),
(774,-205,l),
(784,-35,l),
(891,-27,o),
(991,-2,o),
(1085,33,c),
(1085,561,l),
(879,410,o),
(819,401,o),
(778,401,cs),
(707,401,o),
(668,463,o),
(668,569,cs),
(668,745,o),
(815,842,o),
(971,842,cs),
(1001,842,o),
(1034,838,o),
(1065,829,c),
(1065,1249,l),
(999,1272,o),
(913,1284,o),
(848,1290,c),
(858,1452,l),
(705,1452,l),
(696,1288,l),
(297,1251,o),
(29,979,o),
(29,584,cs),
(29,213,o),
(311,2,o),
(631,-31,c)
);
}
);
width = 1167;
}
);
unicode = 162;
},
{
glyphname = currency;
layers = (
{
guides = (
{
pos = (0,756);
},
{
angle = 90;
pos = (809,0);
}
);
layerId = "22B129CF-CF15-475D-9616-E64336B05864";
shapes = (
{
closed = 1;
nodes = (
(958,276,o),
(1085,307,o),
(1190,360,c),
(1317,217,l),
(1446,315,l),
(1325,451,l),
(1460,571,o),
(1528,739,o),
(1528,907,cs),
(1528,1075,o),
(1460,1243,o),
(1323,1364,c),
(1446,1501,l),
(1317,1599,l),
(1188,1454,l),
(1085,1507,o),
(958,1538,o),
(809,1538,cs),
(662,1538,o),
(539,1507,o),
(436,1458,c),
(313,1599,l),
(184,1501,l),
(299,1368,l),
(160,1247,o),
(90,1077,o),
(90,907,cs),
(90,737,o),
(160,567,o),
(299,446,c),
(184,315,l),
(313,217,l),
(436,356,l),
(537,305,o),
(662,276,o),
(809,276,cs)
);
},
{
closed = 1;
nodes = (
(668,635,o),
(532,729,o),
(532,915,cs),
(532,1096,o),
(670,1186,o),
(809,1186,cs),
(948,1186,o),
(1085,1096,o),
(1085,915,cs),
(1085,729,o),
(950,635,o),
(809,635,cs)
);
}
);
width = 1620;
}
);
unicode = 164;
},
{
glyphname = dollar;
layers = (
{
layerId = "22B129CF-CF15-475D-9616-E64336B05864";
shapes = (
{
closed = 1;
nodes = (
(776,1802,l),
(623,1802,l),
(614,1632,l),
(322,1595,o),
(68,1448,o),
(68,1126,cs),
(68,623,o),
(553,662,o),
(553,512,cs),
(553,465,o),
(512,451,o),
(453,451,cs),
(317,451,o),
(88,541,o),
(72,545,c),
(72,72,l),
(72,72,o),
(166,-14,o),
(528,-33,c),
(520,-205,l),
(674,-205,l),
(682,-37,l),
(1073,-33,o),
(1327,143,o),
(1327,485,cs),
(1327,856,o),
(1120,937,o),
(848,1040,cs),
(766,1071,o),
(745,1094,o),
(745,1118,cs),
(745,1147,o),
(776,1171,o),
(838,1171,cs),
(971,1171,o),
(1229,1114,o),
(1229,1114,c),
(1229,1585,l),
(1192,1595,o),
(987,1638,o),
(768,1640,c)
);
}
);
width = 1382;
}
);
unicode = 36;
},
{
glyphname = sterling;
layers = (
{
guides = (
{
pos = (0,649);
},
{
pos = (0,967);
}
);
layerId = "22B129CF-CF15-475D-9616-E64336B05864";
shapes = (
{
closed = 1;
nodes = (
(1823,506,l),
(1759,475,o),
(1597,438,o),
(1477,438,cs),
(1358,438,o),
(1243,477,o),
(1124,477,cs),
(1042,477,o),
(952,461,o),
(872,444,c),
(872,444,o),
(911,541,o),
(920,649,c),
(1438,649,l),
(1438,967,l),
(946,967,l),
(946,1126,o),
(1044,1206,o),
(1174,1206,cs),
(1257,1206,o),
(1335,1165,o),
(1362,1087,c),
(1829,1249,l),
(1829,1579,o),
(1395,1640,o),
(1180,1640,cs),
(727,1640,o),
(391,1464,o),
(336,997,cs),
(332,967,l),
(70,967,l),
(70,649,l),
(315,649,l),
(315,557,ls),
(315,360,o),
(174,207,o),
(59,131,c),
(178,-37,l),
(315,33,o),
(449,55,o),
(575,55,cs),
(897,55,o),
(1141,-37,o),
(1405,-37,cs),
(1546,-37,o),
(1692,-14,o),
(1860,70,c)
);
}
);
width = 1954;
}
);
unicode = 163;
},
{
glyphname = yen;
layers = (
{
layerId = "22B129CF-CF15-475D-9616-E64336B05864";
shapes = (
{
closed = 1;
nodes = (
(178,748,l),
(465,748,l),
(520,635,l),
(178,635,l),
(178,451,l),
(541,451,l),
(541,0,l),
(1188,0,l),
(1188,451,l),
(1565,451,l),
(1565,635,l),
(1208,635,l),
(1264,748,l),
(1565,748,l),
(1565,932,l),
(1356,932,l),
(1686,1597,l),
(1090,1597,l),
(926,1270,l),
(766,1597,l),
(53,1597,l),
(377,932,l),
(178,932,l)
);
}
);
width = 1739;
}
);
unicode = 165;
},
{
glyphname = plus;
layers = (
{
layerId = "22B129CF-CF15-475D-9616-E64336B05864";
shapes = (
{
closed = 1;
nodes = (
(33,963,l),
(33,594,l),
(360,594,l),
(360,268,l),
(729,268,l),
(729,594,l),
(1055,594,l),
(1055,963,l),
(729,963,l),
(729,1290,l),
(360,1290,l),
(360,963,l)
);
}
);
width = 1087;
}
);
unicode = 43;
},
{
glyphname = multiply;
layers = (
{
layerId = "22B129CF-CF15-475D-9616-E64336B05864";
shapes = (
{
closed = 1;
nodes = (
(66,389,l),
(326,129,l),
(588,389,l),
(846,131,l),
(1108,391,l),
(848,651,l),
(1108,909,l),
(846,1171,l),
(588,911,l),
(326,1171,l),
(66,911,l),
(326,651,l)
);
}
);
width = 1171;
}
);
unicode = 215;
},
{
glyphname = equal;
layers = (
{
layerId = "22B129CF-CF15-475D-9616-E64336B05864";
shapes = (
{
closed = 1;
nodes = (
(123,614,l),
(1036,614,l),
(1036,911,l),
(123,911,l)
);
},
{
closed = 1;
nodes = (
(123,55,l),
(1036,55,l),
(1036,352,l),
(123,352,l)
);
}
);
width = 1157;
}
);
unicode = 61;
},
{
glyphname = greater;
layers = (
{
layerId = "22B129CF-CF15-475D-9616-E64336B05864";
shapes = (
{
closed = 1;
nodes = (
(123,139,l),
(975,735,ls),
(998,751,o),
(1014,782,o),
(1014,815,cs),
(1014,850,o),
(1001,881,o),
(975,895,c),
(123,1466,l),
(123,969,l),
(346,840,l),
(123,705,l)
);
}
);
width = 1014;
}
);
unicode = 62;
},
{
glyphname = less;
layers = (
{
layerId = "22B129CF-CF15-475D-9616-E64336B05864";
shapes = (
{
closed = 1;
nodes = (
(891,1466,l),
(39,870,l),
(14,856,o),
(0,823,o),
(0,791,cs),
(0,756,o),
(12,725,o),
(39,711,c),
(891,139,l),
(891,637,l),
(668,766,l),
(891,901,l)
);
}
);
width = 1010;
}
);
unicode = 60;
},
{
glyphname = plusminus;
layers = (
{
layerId = "22B129CF-CF15-475D-9616-E64336B05864";
shapes = (
{
closed = 1;
nodes = (
(59,979,l),
(59,684,l),
(322,684,l),
(322,424,l),
(616,424,l),
(616,684,l),
(877,684,l),
(877,979,l),
(616,979,l),
(616,1241,l),
(322,1241,l),
(322,979,l)
);
},
{
closed = 1;
nodes = (
(102,0,l),
(831,0,l),
(831,238,l),
(102,238,l)
);
}
);
width = 936;
}
);
unicode = 177;
},
{
glyphname = logicalnot;
layers = (
{
layerId = "22B129CF-CF15-475D-9616-E64336B05864";
shapes = (
{
closed = 1;
nodes = (
(39,479,l),
(801,479,l),
(801,305,l),
(1098,305,l),
(1098,911,l),
(39,911,l)
);
}
);
width = 1219;
}
);
unicode = 172;
},
{
glyphname = asciitilde;
layers = (
{
layerId = "22B129CF-CF15-475D-9616-E64336B05864";
shapes = (
{
closed = 1;
nodes = (
(399,1427,o),
(614,1321,o),
(776,1321,cs),
(911,1321,o),
(1012,1397,o),
(1012,1669,cs),
(1012,1677,o),
(1006,1686,o),
(995,1686,cs),
(973,1686,o),
(928,1624,o),
(852,1624,cs),
(711,1624,o),
(494,1729,o),
(326,1729,cs),
(184,1729,o),
(78,1655,o),
(78,1384,cs),
(78,1376,o),
(86,1368,o),
(96,1368,cs),
(117,1368,o),
(164,1427,o),
(238,1427,cs)
);
}
);
width = 1098;
}
);
unicode = 126;
},
{
glyphname = asciicircum;
layers = (
{
guides = (
{
angle = 90;
pos = (365,0);
}
);
layerId = "22B129CF-CF15-475D-9616-E64336B05864";
shapes = (
{
closed = 1;
nodes = (
(63,1464,ls),
(51,1439,o),
(47,1416,o),
(47,1401,cs),
(47,1378,o),
(59,1366,o),
(78,1366,cs),
(103,1366,o),
(144,1388,o),
(184,1425,cs),
(410,1632,l),
(637,1425,ls),
(676,1389,o),
(717,1366,o),
(743,1366,cs),
(762,1366,o),
(772,1378,o),
(772,1401,cs),
(772,1417,o),
(769,1438,o),
(758,1464,c),
(553,1882,ls),
(522,1944,o),
(463,1972,o),
(412,1972,cs),
(357,1972,o),
(296,1939,o),
(268,1882,cs)
);
}
);
width = 819;
}
);
unicode = 94;
},
{
glyphname = mu;
layers = (
{
layerId = "22B129CF-CF15-475D-9616-E64336B05864";
shapes = (
{
closed = 1;
nodes = (
(123,-233,l),
(721,-233,l),
(721,27,l),
(766,8,o),
(809,0,o),
(848,0,cs),
(954,0,o),
(1049,55,o),
(1100,195,c),
(1243,0,l),
(1571,0,l),
(1571,1243,l),
(977,1243,l),
(977,467,l),
(948,365,o),
(887,322,o),
(829,322,cs),
(772,322,o),
(721,367,o),
(721,438,cs),
(721,1243,l),
(123,1243,l)
);
}
);
width = 1649;
}
);
unicode = 181;
},
{
glyphname = percent;
layers = (
{
guides = (
{
pos = (0,805);
},
{
angle = 90;
pos = (868,0);
}
);
layerId = "22B129CF-CF15-475D-9616-E64336B05864";
shapes = (
{
closed = 1;
nodes = (
(2517,313,o),
(2454,438,o),
(2454,563,cs),
(2454,686,o),
(2515,809,o),
(2640,809,cs),
(2763,809,o),
(2824,682,o),
(2824,559,cs),
(2824,436,o),
(2763,313,o),
(2640,313,cs)
);
},
{
closed = 1;
nodes = (
(3049,-37,o),
(3256,262,o),
(3256,561,cs),
(3256,860,o),
(3049,1159,o),
(2640,1159,cs),
(2228,1159,o),
(2023,860,o),
(2023,561,cs),
(2023,262,o),
(2228,-37,o),
(2640,-37,cs)
);
},
{
closed = 1;
nodes = (
(553,795,o),
(489,920,o),
(489,1044,cs),
(489,1167,o),
(551,1290,o),
(676,1290,cs),
(799,1290,o),
(860,1163,o),
(860,1040,cs),
(860,918,o),
(799,795,o),
(676,795,cs)
);
},
{
closed = 1;
nodes = (
(1085,444,o),
(1292,743,o),
(1292,1042,cs),
(1292,1341,o),
(1085,1640,o),
(676,1640,cs),
(264,1640,o),
(59,1341,o),
(59,1042,cs),
(59,743,o),
(264,444,o),
(676,444,cs)
);
},
{
closed = 1;
nodes = (
(2310,1597,l),
(1718,1597,l),
(1165,0,l),
(1430,0,l)
);
}
);
width = 3320;
}
);
unicode = 37;
},
{
glyphname = dotaccentcmb;
layers = (
{
anchors = (
{
name = _top;
pos = (315,680);
}
);
layerId = "22B129CF-CF15-475D-9616-E64336B05864";
shapes = (
{
closed = 1;
nodes = (
(168,1516,o),
(43,1348,o),
(43,1198,cs),
(43,1057,o),
(127,928,o),
(317,928,cs),
(541,928,o),
(651,1090,o),
(651,1243,cs),
(651,1382,o),
(559,1516,o),
(377,1516,cs)
);
}
);
width = 694;
}
);
unicode = 775;
},
{
glyphname = uni030F;
layers = (
{
anchors = (
{
name = _top;
pos = (795,680);
}
);
layerId = "22B129CF-CF15-475D-9616-E64336B05864";
shapes = (
{
closed = 1;
nodes = (
(115,1485,l),
(586,946,ls),
(623,903,o),
(657,883,o),
(682,883,cs),
(702,883,o),
(715,899,o),
(715,930,cs),
(715,946,o),
(713,963,o),
(707,985,cs),
(563,1485,l)
);
},
{
closed = 1;
nodes = (
(672,1485,l),
(1020,946,ls),
(1050,900,o),
(1079,877,o),
(1102,877,cs),
(1126,877,o),
(1143,903,o),
(1143,950,cs),
(1143,961,o),
(1143,973,o),
(1141,985,c),
(1079,1485,l)
);
}
);
width = 1274;
}
);
unicode = 783;
},
{
glyphname = uni0311;
layers = (
{
anchors = (
{
name = _top;
pos = (659,680);
}
);
layerId = "22B129CF-CF15-475D-9616-E64336B05864";
shapes = (
{
closed = 1;
nodes = (
(1214,926,l),
(1214,1190,o),
(1026,1450,o),
(659,1450,cs),
(291,1450,o),
(104,1192,o),
(104,926,c),
(473,926,l),
(473,1036,o),
(537,1141,o),
(659,1141,cs),
(782,1141,o),
(844,1032,o),
(844,926,c)
);
}
);
width = 1319;
}
);
unicode = 785;
},
{
glyphname = uni0326;
layers = (
{
anchors = (
{
name = _bot;
pos = (355,0);
}
);
layerId = "22B129CF-CF15-475D-9616-E64336B05864";
shapes = (
{
closed = 1;
nodes = (
(53,-1022,l),
(477,-1022,o),
(662,-842,o),
(662,-539,cs),
(662,-135,l),
(53,-135,l),
(53,-557,l),
(233,-557,l),
(233,-557,o),
(233,-764,o),
(53,-764,c)
);
}
);
width = 715;
}
);
unicode = 806;
},
{
glyphname = dieresis;
layers = (
{
anchors = (
{
name = _top;
pos = (647,680);
}
);
layerId = "22B129CF-CF15-475D-9616-E64336B05864";
shapes = (
{
closed = 1;
nodes = (
(195,1284,o),
(102,1165,o),
(102,1049,cs),
(102,936,o),
(178,842,o),
(330,842,cs),
(506,842,o),
(582,963,o),
(582,1083,cs),
(582,1194,o),
(504,1284,o),
(360,1284,cs)
);
},
{
closed = 1;
nodes = (
(801,1284,o),
(709,1165,o),
(709,1049,cs),
(709,936,o),
(788,842,o),
(938,842,cs),
(1114,842,o),
(1188,963,o),
(1188,1083,cs),
(1188,1194,o),
(1110,1284,o),
(965,1284,cs)
);
}
);
width = 1290;
}
);
unicode = 168;
},
{
glyphname = dotaccent;
layers = (
{
anchors = (
{
name = _top;
pos = (315,680);
}
);
layerId = "22B129CF-CF15-475D-9616-E64336B05864";
shapes = (
{
closed = 1;
nodes = (
(168,1516,o),
(43,1348,o),
(43,1198,cs),
(43,1057,o),
(127,928,o),
(317,928,cs),
(541,928,o),
(651,1090,o),
(651,1243,cs),
(651,1382,o),
(559,1516,o),
(377,1516,cs)
);
}
);
width = 694;
}
);
unicode = 729;
},
{
glyphname = grave;
layers = (
{
anchors = (
{
name = _top;
pos = (555,680);
}
);
layerId = "22B129CF-CF15-475D-9616-E64336B05864";
shapes = (
{
closed = 1;
nodes = (
(33,1476,l),
(463,938,ls),
(500,892,o),
(530,868,o),
(555,868,cs),
(578,868,o),
(592,889,o),
(592,923,cs),
(592,938,o),
(590,956,o),
(584,977,cs),
(440,1476,l)
);
}
);
width = 625;
}
);
unicode = 96;
},
{
glyphname = acute;
layers = (
{
anchors = (
{
name = _top;
pos = (70,680);
}
);
layerId = "22B129CF-CF15-475D-9616-E64336B05864";
shapes = (
{
closed = 1;
nodes = (
(184,1477,l),
(41,978,ls),
(35,957,o),
(33,939,o),
(33,924,cs),
(33,890,o),
(47,869,o),
(70,869,cs),
(94,869,o),
(125,893,o),
(162,939,cs),
(592,1477,l)
);
}
);
width = 625;
}
);
unicode = 180;
},
{
glyphname = hungarumlaut;
layers = (
{
anchors = (
{
name = _top;
pos = (406,680);
}
);
layerId = "22B129CF-CF15-475D-9616-E64336B05864";
shapes = (
{
closed = 1;
nodes = (
(188,1485,l),
(147,985,l),
(147,975,o),
(145,967,o),
(145,958,cs),
(145,903,o),
(164,877,o),
(186,877,cs),
(211,877,o),
(239,899,o),
(268,946,cs),
(596,1485,l)
);
},
{
closed = 1;
nodes = (
(725,1485,l),
(596,985,l),
(596,963,o),
(594,944,o),
(594,930,cs),
(594,895,o),
(606,881,o),
(627,881,cs),
(653,881,o),
(690,905,o),
(723,946,cs),
(1153,1485,l)
);
}
);
width = 1274;
}
);
unicode = 733;
},
{
glyphname = circumflex;
layers = (
{
anchors = (
{
name = _top;
pos = (410,680);
}
);
guides = (
{
angle = 90;
pos = (365,0);
}
);
layerId = "22B129CF-CF15-475D-9616-E64336B05864";
shapes = (
{
closed = 1;
nodes = (
(63,1004,l),
(51,977,o),
(47,956,o),
(47,940,cs),
(47,918,o),
(59,905,o),
(78,905,cs),
(104,905,o),
(143,928,o),
(184,965,cs),
(410,1171,l),
(637,965,ls),
(677,928,o),
(716,905,o),
(743,905,cs),
(762,905,o),
(772,918,o),
(772,940,cs),
(772,956,o),
(771,977,o),
(758,1004,cs),
(553,1421,ls),
(522,1483,o),
(467,1511,o),
(412,1511,cs),
(356,1511,o),
(296,1479,o),
(268,1421,cs)
);
}
);
width = 819;
}
);
unicode = 710;
},
{
glyphname = caron;
layers = (
{
anchors = (
{
name = _top;
pos = (393,680);
}
);
guides = (
{
angle = 90;
pos = (348,0);
}
);
layerId = "22B129CF-CF15-475D-9616-E64336B05864";
shapes = (
{
closed = 1;
nodes = (
(252,989,ls),
(280,932,o),
(341,899,o),
(395,899,cs),
(450,899,o),
(507,927,o),
(537,989,cs),
(741,1407,ls),
(754,1434,o),
(756,1454,o),
(756,1470,cs),
(756,1493,o),
(745,1505,o),
(727,1505,cs),
(700,1505,o),
(660,1482,o),
(621,1446,cs),
(393,1239,l),
(168,1446,ls),
(127,1483,o),
(88,1505,o),
(61,1505,cs),
(43,1505,o),
(31,1493,o),
(31,1470,cs),
(31,1452,o),
(36,1433,o),
(47,1407,c)
);
}
);
width = 786;
}
);
unicode = 711;
},
{
glyphname = breve;
layers = (
{
anchors = (
{
name = _top;
pos = (657,680);
}
);
layerId = "22B129CF-CF15-475D-9616-E64336B05864";
shapes = (
{
closed = 1;
nodes = (
(842,1465,l),
(842,1328,o),
(780,1205,o),
(657,1205,cs),
(535,1205,o),
(471,1330,o),
(471,1472,c),
(41,1472,l),
(41,1154,o),
(246,855,o),
(657,855,cs),
(1067,855,o),
(1274,1150,o),
(1274,1465,c)
);
}
);
width = 1317;
}
);
unicode = 728;
},
{
glyphname = ring;
layers = (
{
anchors = (
{
name = _top;
pos = (371,680);
}
);
guides = (
{
pos = (0,1096);
},
{
angle = 90;
pos = (410,0);
}
);
layerId = "22B129CF-CF15-475D-9616-E64336B05864";
shapes = (
{
closed = 1;
nodes = (
(463,1327,o),
(512,1257,o),
(512,1190,cs),
(512,1122,o),
(465,1055,o),
(371,1055,cs),
(274,1055,o),
(225,1124,o),
(225,1194,cs),
(225,1260,o),
(272,1327,o),
(367,1327,cs)
);
},
{
closed = 1;
nodes = (
(43,979,o),
(205,872,o),
(369,872,cs),
(530,872,o),
(692,979,o),
(692,1192,cs),
(692,1401,o),
(528,1507,o),
(367,1507,cs),
(205,1507,o),
(43,1403,o),
(43,1192,cs)
);
}
);
width = 735;
}
);
unicode = 730;
},
{
glyphname = tilde;
layers = (
{
anchors = (
{
name = _top;
pos = (602,680);
}
);
layerId = "22B129CF-CF15-475D-9616-E64336B05864";
shapes = (
{
closed = 1;
nodes = (
(467,989,o),
(682,883,o),
(844,883,cs),
(979,883,o),
(1079,958,o),
(1079,1231,cs),
(1079,1239,o),
(1073,1247,o),
(1063,1247,cs),
(1040,1247,o),
(995,1186,o),
(920,1186,cs),
(778,1186,o),
(561,1290,o),
(393,1290,cs),
(252,1290,o),
(145,1217,o),
(145,946,cs),
(145,938,o),
(154,930,o),
(164,930,cs),
(184,930,o),
(231,989,o),
(305,989,cs)
);
}
);
width = 1098;
}
);
unicode = 732;
},
{
glyphname = macron;
layers = (
{
anchors = (
{
name = _top;
pos = (588,680);
}
);
layerId = "22B129CF-CF15-475D-9616-E64336B05864";
shapes = (
{
closed = 1;
nodes = (
(123,946,l),
(1036,946,l),
(1036,1243,l),
(123,1243,l)
);
}
);
width = 1157;
}
);
unicode = 175;
},
{
glyphname = cedilla;
layers = (
{
anchors = (
{
name = _bot;
pos = (362,0);
}
);
layerId = "22B129CF-CF15-475D-9616-E64336B05864";
shapes = (
{
closed = 1;
nodes = (
(135,-596,o),
(252,-631,o),
(362,-631,cs),
(514,-631,o),
(657,-563,o),
(657,-403,cs),
(657,-218,o),
(485,-200,o),
(401,-192,cs),
(379,-190,l),
(440,0,l),
(303,0,l),
(303,0,o),
(208,-322,o),
(209,-328,c),
(297,-328,o),
(385,-360,o),
(385,-420,cs),
(385,-469,o),
(332,-485,o),
(295,-485,cs),
(190,-485,o),
(98,-422,o),
(80,-422,cs),
(49,-422,o),
(20,-451,o),
(20,-483,cs),
(20,-502,o),
(33,-524,o),
(59,-545,c)
);
}
);
width = 709;
}
);
unicode = 184;
},
{
glyphname = ogonek;
layers = (
{
anchors = (
{
name = _bot;
pos = (383,0);
}
);
layerId = "22B129CF-CF15-475D-9616-E64336B05864";
shapes = (
{
closed = 1;
nodes = (
(664,-522,o),
(676,-500,o),
(676,-481,cs),
(676,-449,o),
(647,-420,o),
(616,-420,cs),
(598,-420,o),
(506,-483,o),
(401,-483,cs),
(336,-483,o),
(311,-444,o),
(311,-387,cs),
(311,-246,o),
(455,0,o),
(455,0,c),
(317,0,l),
(317,0,o),
(39,-197,o),
(39,-401,cs),
(39,-561,o),
(182,-629,o),
(334,-629,cs),
(444,-629,o),
(561,-594,o),
(637,-543,c)
);
}
);
width = 696;
}
);
unicode = 731;
},
{
glyphname = commaaccent;
layers = (
{
anchors = (
{
name = _bot;
pos = (349,0);
},
{
name = _top;
pos = (54,-1161);
}
);
layerId = "22B129CF-CF15-475D-9616-E64336B05864";
shapes = (
{
closed = 1;
nodes = (
(53,-1022,l),
(477,-1022,o),
(662,-842,o),
(662,-539,cs),
(662,-135,l),
(53,-135,l),
(53,-557,l),
(233,-557,l),
(233,-557,o),
(233,-764,o),
(53,-764,c)
);
}
);
width = 715;
}
);
unicode = 63171;
},
{
glyphname = foundryicon;
layers = (
{
layerId = "22B129CF-CF15-475D-9616-E64336B05864";
shapes = (
{
closed = 1;
nodes = (
(592,375,l),
(530,323,o),
(397,221,q),
(390,216,o),
(330,157,o),
(278,115,o),
(266,115,q),
(231,115,o),
(231,141,q),
(231,149,o),
(236,163,o),
(244,180,o),
(246,186,q),
(261,252,o),
(349,502,o),
(354,516,q),
(356,518,o),
(356,520,q),
(354,522,l),
(333,551,o),
(274,613,o),
(234,650,o),
(151,722,o),
(137,735,q),
(127,744,o),
(61,781,o),
(18,818,o),
(18,840,q),
(18,870,o),
(57,870,q),
(59,870,o),
(137,859,o),
(243,848,o),
(279,848,q),
(469,840,l),
(563,1075,l),
(573,1090,o),
(605,1179,o),
(641,1235,o),
(666,1235,q),
(680,1235,o),
(715,1201,o),
(715,1188,q),
(715,1119,o),
(768,895,q),
(778,848,l),
(863,842,o),
(981,842,q),
(1017,842,o),
(1142,848,o),
(1171,848,q),
(1225,848,o),
(1225,807,q),
(1225,801,o),
(1186,772,o),
(1133,739,o),
(1128,735,q),
(1107,715,o),
(1012,616,o),
(933,548,o),
(893,528,q),
(881,522,l),
(881,510,l),
(881,486,o),
(895,428,o),
(919,356,o),
(922,344,q),
(928,343,o),
(975,128,o),
(975,106,q),
(975,91,o),
(957,72,o),
(942,72,q),
(925,72,o),
(842,167,o),
(754,280,o),
(644,375,o),
(604,375,q)
);
}
